<?xml version="1.0" encoding="utf-8"?>
<svg version="1.1" id="_x31_" xmlns="http://www.w3.org/2000/svg" xmlns:xlink="http://www.w3.org/1999/xlink" x="0px" y="0px"
	 viewBox="0 0 309.078125 49.3705673" style="enable-background:new 0 0 309.078125 49.3705673;" xml:space="preserve">
<style type="text/css">
	.st0{fill:#0D1C30;}
	.st1{fill:#FF9500;}
</style>
<path class="st0" d="M61.4682655,18.6709919h-2.2994499c-2.2616692,0-2.8785629,0.3365116-3.6819267,1.8134041l-0.6544037,1.3081303
	c-0.4301529,0.8038368-0.9161644,1.1590023-2.0560379,1.1590023h-0.4369011
	c-0.0704308-1.4600601-0.2533951-2.8865242-0.6749115-4.1738758c-0.137085-0.4189873-0.4965363-0.7257137-0.9339752-0.7826538
	l-3.8338547-0.5330677l-0.0005417-0.0001011l-0.845459-0.1423836l0.0426369,0.142046v0.0003376
	c0.0893211,0.2499542,0.171627,0.5022373,0.2517776,0.7552948c0.0340004,0.108078,0.0663834,0.2166958,0.0987663,0.3252792
	c0.1133385,0.378273,0.2148056,0.7597828,0.3073654,1.1436195c0.0418282,0.1735516,0.084465,0.3468342,0.1222458,0.5213642
	c0.042099,0.1960163,0.0798798,0.3929443,0.1165771,0.5900421c0.047226,0.2534294,0.0887833,0.5076675,0.1268349,0.7626152
	c0.0226669,0.1508827,0.0466843,0.3014965,0.0658455,0.4528198c0.0458755,0.3588085,0.0804176,0.7188988,0.1082115,1.0796299
	c0.0089035,0.1179943,0.0164604,0.236124,0.0234795,0.3542881c0.0242844,0.4056625,0.0410156,0.8117962,0.0415573,1.2183704
	c0,0.0030346,0.000267,0.0061054,0.000267,0.00914c0.0005417,0.4842587-0.01511,0.9685841-0.047493,1.4518986
	c-0.032383,0.4833126-0.0814972,0.9656143-0.1481514,1.4458256c-0.0018883,0.0152473-0.005127,0.0302906-0.0070152,0.0455379
	c-0.0431786,0.3459568-0.0952606,0.6904621-0.1573296,1.0329781c-0.0094414,0.0526905-0.0221252,0.1047382-0.0321121,0.1573277
	c-0.0593681,0.3134041-0.1235924,0.6257973-0.1980743,0.9357948c-0.0056648,0.024456-0.0126839,0.0486088-0.0186195,0.0730305
	c-0.1710892,0.7001781-0.3780708,1.3913822-0.6209412,2.0701065l-0.0002708,0.0007076l-0.029953,0.0988693l0.7998543-0.099577
	l0.0005417-0.0001011l3.8338547-0.5331707c0.437439-0.0569401,0.7968903-0.3636665,0.9339752-0.7825851
	c0.3661957-1.1183872,0.5537453-2.3413792,0.6427994-3.6004963h0.300621c1.2710266,0,1.7942772,0.3738174,2.2058105,1.2898483
	l0.5418701,1.1586628c0.747776,1.6449795,1.3460464,1.8879528,3.6824684,1.8879528h2.2616692
	c0.467392,0,0.7288857-0.2802467,0.5046349-0.7476044l-2.2427826-4.2805367
	c-0.2431412-0.5045986-0.39291-0.9719238-0.39291-1.233551c0-0.2992363,0.1497688-0.7289505,0.4115295-1.2525406
	l2.3175316-4.4300022C62.1037788,18.9702282,61.8606377,18.6709919,61.4682655,18.6709919z M77.0765152,19.3999424
	c-0.8222504-0.5791473-1.9254303-0.7848797-6.5607605-0.7848797c-3.0841904,0-5.4208832,0.0935402-7.1590309,0.1494675
	c-0.2056313,0-0.4487724,0.1121597-0.4487724,0.4300518v11.7012615c0,0.2429733,0.1122589,0.4110603,0.3740234,0.4110603h4.6542206
	c0.3923721,0,0.5421448-0.168087,0.5421448-0.579483v-1.9439144c0-0.6354122,0.1681213-0.7662258,0.6355133-0.7662258h2.6729279
	c3.3829269,0,4.560585-0.3178577,5.3458633-0.9909134c0.7288818-0.6354122,1.2712936-2.0187664,1.2712936-3.9813004
	C78.4039383,21.1011868,77.9176636,19.9608059,77.0765152,19.3999424z M72.4034042,24.3535366
	c-0.2242508,0.1308117-0.7102661,0.1494331-1.794281,0.1494331h-1.6075363c-0.504631,0-0.5979996-0.0935402-0.5979996-0.6167583
	v-0.9906101c0-0.3737869,0.1308823-0.4673252,0.4485016-0.4859447c0.2990036-0.0189915,0.9906464-0.0749207,1.6447754-0.0749207
	c1.2710266,0,1.7384186,0.0559292,1.962944,0.1681213c0.2056274,0.1307793,0.3173447,0.3927441,0.3173447,0.8787212
	C72.777153,23.9421062,72.6090393,24.2599964,72.4034042,24.3535366z M93.4150009,22.3533897
	c-0.6913757-1.7381802-1.1587677-2.5792904-1.7567673-3.0279961c-0.6168976-0.4859772-2.0752029-0.8038692-4.7292404-0.8038692
	c-2.6356964,0-3.8319702,0.3924389-4.4861069,0.878418c-0.5235214,0.3927765-1.0840149,1.1963081-1.7197952,2.8975201
	l-2.8035431,7.3831158c-0.2245178,0.579483-0.3923721,0.9909134-0.3923721,1.1776543
	c0,0.205698,0.1306152,0.4486713,0.5604935,0.4486713h2.7104416c1.7570419,0,2.1683044-0.3365116,2.5420532-1.3270893
	l0.4298782-1.1776543c0.1122665-0.3551655,0.2990036-0.5232525,0.8039093-0.5232525h4.355217
	c0.4857407,0,0.7102661,0.1121922,0.8411407,0.4673252l0.4485092,1.252203
	c0.3551254,0.9719563,0.803627,1.3084679,2.5234299,1.3084679h3.383194c0.2614899,0,0.4860153-0.1870785,0.4860153-0.4110603
	c0-0.2243519-0.0558624-0.3551636-0.2431412-0.8224888L93.4150009,22.3533897z M87.7515106,24.802206h-2.0560379
	c-0.3737488,0-0.5796509-0.0748844-0.5796509-0.3551311c0-0.1308136,0.0750198-0.3178921,0.1308823-0.5049686l0.2056274-0.5791473
	c0.1681213-0.4673576,0.2617645-0.5608635,0.4112625-0.6730576c0.1497726-0.0935383,0.4298859-0.205698,0.9531326-0.205698
	c0.5049057,0,0.7666626,0.0562649,0.8975449,0.1684246c0.149231,0.0932026,0.2614899,0.2243519,0.4109955,0.6913395
	l0.1683884,0.5235901c0.0744781,0.2429714,0.1122589,0.4297123,0.1122589,0.5232525
	C88.4059143,24.6713943,88.2189026,24.802206,87.7515106,24.802206z M113.5959778,18.6709919h-4.1495895
	c-0.7475052,0-1.0653992,0.2992363-1.0653992,1.0654621v2.0750637c0,0.9343128-0.2056274,1.1027374-1.2710266,1.1027374h-2.6545792
	c-0.9903717,0-1.3079987-0.0562668-1.3079987-1.1217289v-2.0746918c0-0.7662258-0.3740158-1.0468426-1.1962738-1.0468426h-4.0003586
	c-0.1867371,0-0.3737488,0.1498032-0.3737488,0.3551655v11.8506966c0,0.2619629,0.0936356,0.4300499,0.3737488,0.4300499h4.1871033
	c0.7102585,0,1.0095291-0.3365116,1.0095291-1.084116V28.166748c0-0.9909134,0.2614975-1.2149296,1.2893753-1.2149296h2.6918259
	c1.0656662,0,1.2524033,0.1867085,1.2524033,1.1773186v2.1309242c0,0.8038692,0.3551331,1.0468426,1.0653992,1.0468426h4.1495895
	c0.2058945,0,0.3554001-0.168087,0.3554001-0.373785v-11.832077
	C113.9513779,18.8207951,113.876358,18.6709919,113.5959778,18.6709919z M196.497345,22.6183891
	c-0.6911011-1.7381477-1.158493-2.5792904-1.7567596-3.0279961c-0.6166229-0.4859447-2.0749359-0.8038349-4.729248-0.8038349
	c-2.6354218,0-3.8316956,0.3924389-4.4858246,0.878418c-0.5235291,0.3927765-1.0840149,1.1962738-1.7198029,2.8975201
	l-2.8038025,7.3830814c-0.2242584,0.5795174-0.3923798,0.9909134-0.3923798,1.1776543
	c0,0.2056999,0.1308746,0.4487057,0.5605011,0.4487057h2.710434c1.757309,0,2.1683044-0.3365459,2.5420532-1.3271236
	l0.4301453-1.1776543c0.1122742-0.3551311,0.2987366-0.5232182,0.8039093-0.5232182h4.35495
	c0.4860077,0,0.7102661,0.1121578,0.8411407,0.4673233l0.4487762,1.252203
	c0.3551331,0.9719238,0.80336,1.3084698,2.5234375,1.3084698h3.3829193c0.2617645,0,0.4860077-0.1870785,0.4860077-0.4110947
	c0-0.2243519-0.0558624-0.3551636-0.2428741-0.8224888L196.497345,22.6183891z M190.8338623,25.0672398h-2.0560303
	c-0.373764,0-0.5793915-0.0748844-0.5793915-0.3551655c0-0.1308136,0.0747528-0.3178921,0.1306152-0.5049362l0.2059021-0.5791798
	c0.1681213-0.4673252,0.2614899-0.5608635,0.4109955-0.6730232c0.149765-0.0935383,0.4301453-0.2057323,0.9533997-0.2057323
	c0.5048981,0,0.7663879,0.0562649,0.8972778,0.1684589c0.1494904,0.0931683,0.2614899,0.2243176,0.4109802,0.6913395
	l0.168396,0.5235558c0.0747528,0.2430058,0.1122589,0.4297123,0.1122589,0.5232525
	C191.488266,24.9364262,191.3012543,25.0672398,190.8338623,25.0672398z M216.603302,18.8973007l-4.1498566,0.0386906h-11.4953613
	c-0.1867371,0-0.3737488,0.1498032-0.3737488,0.3551655v11.850729c0,0.2619648,0.0933685,0.4300518,0.3737488,0.4300518h4.1871033
	c0.7102661,0,1.0095367-0.3365459,1.0095367-1.084116v-7.3428059c0-0.1772614,0.1435547-0.3208942,0.3208618-0.3208942h4.5916138
	c0.1772919,0,0.3208466,0.1436329,0.3208466,0.3208942v7.3800793c0,0.8038368,0.3551331,1.0468426,1.0653992,1.0468426h4.1498566
	c0.1961975,0,0.3551331-0.1590481,0.3551331-0.3551655V19.3660755
	C216.9584351,19.0857944,216.8836823,18.8973007,216.603302,18.8973007z M233.4364319,19.0295296
	c-1.1825104-0.038084-2.836731,0.0207787-4.6469269,0.0047569c-0.2191315-0.0019226-0.3996582,0.1738892-0.3996582,0.3929119
	v4.7240124c0,0.5232525-0.0936432,0.6167908-0.5982819,0.6167908h-1.607254c-1.0842896,0-1.5700378-0.0186539-1.7945557-0.1494656
	c-0.2056274-0.0935402-0.3737488-0.4113979-0.3737488-0.9719238v-4.355423c0-0.2175369-0.1764832-0.3939571-0.3939972-0.3939571
	h-4.8382568c-0.217514,0-0.3939972,0.1764202-0.3939972,0.3939571v4.018877c0,1.962534,0.5418701,3.3458881,1.2707672,3.9813004
	c0.7852783,0.6730556,1.9629364,0.9906101,5.3461304,0.9906101h2.6726532c0.467392,0,0.6355133,0.1311512,0.6355133,0.7665634
	v1.9438801c0,0.4114304,0.1497803,0.5795174,0.5421448,0.5795174h4.6544952c0.2614899,0,0.3737488-0.168087,0.3737488-0.4110947
	V19.4595814C233.8852081,19.1417236,233.6420746,19.0295296,233.4364319,19.0295296z M251.3665314,22.6183891
	c-0.6913605-1.7381477-1.1587524-2.5792904-1.7567596-3.0279961c-0.6168976-0.4859447-2.0751953-0.8038349-4.729248-0.8038349
	c-2.6356812,0-3.8319702,0.3924389-4.4860992,0.878418c-0.5235138,0.3927765-1.0840149,1.1962738-1.7197876,2.8975201
	l-2.8035431,7.3830814c-0.2245331,0.5795174-0.3923798,0.9909134-0.3923798,1.1776543
	c0,0.2056999,0.1306152,0.4487057,0.5604858,0.4487057h2.7104492c1.7570343,0,2.1680298-0.3365459,2.5420532-1.3271236
	l0.4298859-1.1776543c0.1122589-0.3551311,0.298996-0.5232182,0.803894-0.5232182h4.3552246
	c0.4857483,0,0.7102661,0.1121578,0.8408661,0.4673233l0.4487762,1.252203
	c0.3551331,0.9719238,0.8036346,1.3084698,2.5234375,1.3084698h3.383194c0.2614899,0,0.4860077-0.1870785,0.4860077-0.4110947
	c0-0.2243519-0.0561218-0.3551636-0.2431335-0.8224888L251.3665314,22.6183891z M245.7030487,25.0672398h-2.0563049
	c-0.3737488,0-0.5793915-0.0748844-0.5793915-0.3551655c0-0.1308136,0.0750275-0.3178921,0.1308899-0.5049362l0.2056274-0.5791798
	c0.1681213-0.4673252,0.2617645-0.5608635,0.4109955-0.6730232c0.149765-0.0935383,0.4301453-0.2057323,0.9533997-0.2057323
	c0.5048981,0,0.7666626,0.0562649,0.8975525,0.1684589c0.149231,0.0931683,0.2614899,0.2243176,0.4109802,0.6913395
	l0.168396,0.5235558c0.0744781,0.2430058,0.1122589,0.4297123,0.1122589,0.5232525
	C246.3574524,24.9364262,246.170166,25.0672398,245.7030487,25.0672398z M269.7807617,27.4221802
	c-0.9720154,0.0562649-2.3364258,0.168457-5.0282593,0.168457c-2.6542969,0-3.5326843-0.1308136-3.9628296-0.4487038
	c-0.3737488-0.2616272-0.5607605-0.8597641-0.5607605-1.9066067c0-1.1027699,0.2806396-1.7571392,0.6543884-2.0187645
	c0.4485168-0.2802811,1.7195435-0.4297142,3.7941895-0.4297142c2.0187988,0,3.9439697,0.1121597,5.0657654,0.168087
	c0.2617493,0.0186195,0.5418701-0.1494675,0.5418701-0.4487038c0-1.0092316-0.8033752-2.5233974-1.6445007-3.0279961
	c-0.6544189-0.3924408-2.1124573-0.710331-5.3647766-0.710331c-4.0375977,0-5.8132324,0.5981712-6.7666626,1.3643951
	c-1.0467682,0.8787556-1.8690186,2.7667084-1.8690186,5.2338409c0,2.5982819,0.6168976,4.1497231,1.4580383,4.9722137
	c0.9720154,0.9346828,2.7662964,1.4016705,6.7477722,1.4016705c3.7380676,0,5.0843811-0.336174,5.8504944-0.8221531
	c0.803894-0.5235901,1.64505-2.1872234,1.64505-3.0656071C270.3415222,27.5906372,270.1545105,27.4035587,269.7807617,27.4221802z
	 M288.4707642,18.9359913H274.321106c-1.289917,0-1.7195435,0.0562649-2.0560303,0.2992706
	c-0.4860229,0.3924065-0.9909363,1.9252262-0.9909363,3.0093422c0,0.4300518,0.2434082,0.5795174,0.617157,0.5795174h3.8689575
	c1.4207764,0,1.4952698,0.168087,1.4952698,1.2898159v7.0279484c0,0.2619648,0.0936279,0.4300518,0.3742981,0.4300518h4.6166992
	c0.4485168,0,0.5793762-0.2243519,0.5793762-0.5981712v-6.8225555c0-1.2149296,0.1308899-1.3270893,1.6072693-1.3270893h2.1124573
	c0.9158936,0,1.2896423-0.0372734,1.5886536-0.2057323c0.4301453-0.2243176,0.9347839-1.7757931,0.9347839-3.1588078
	C289.0690613,19.1417236,288.8072815,18.9359913,288.4707642,18.9359913z M156.8610535,18.842823
	c-0.9534149,0-1.4766693,0.0931683-1.8318024,0.2989006c-0.4860077,0.2429714-0.8600311,0.6916752-1.4207916,1.5141659
	l-6.0375061,8.7105408c-0.67276,0.9343128-0.9533997,1.1213913-1.7567749,1.1213913
	c-0.5796509,0-0.7291412-0.1870785-0.7291412-0.7289848V19.4968891c0-0.4673595-0.1119995-0.5608978-0.6730347-0.5608978h-0.5046234
	c-0.1497803,0-0.2056274,0.0935383-0.2056274,0.2243519v10.9163837c0,0.6354122,0.1122589,1.0278511,0.3365021,1.2522049
	c0.2431488,0.205698,0.7475128,0.3178902,1.6822968,0.3178902c0.822525,0,1.4766541-0.0935383,1.8690186-0.3178902
	c0.4112701-0.2243538,0.7480469-0.6354122,1.2710266-1.3833542l6.0563965-8.803709
	c0.7477722-1.0095692,0.9906464-1.1217613,1.7759399-1.1217613c0.5791016,0,0.7099915,0.168457,0.7099915,0.710331v10.2806358
	c0,0.4673233,0.149765,0.5608635,0.617157,0.5608635h0.5418701c0.1306152,0,0.1870117-0.0935402,0.1870117-0.2243519V20.506422
	c0-0.6171284-0.0936432-1.0844536-0.3737488-1.327425C158.1506958,18.9736366,157.6271667,18.842823,156.8610535,18.842823z
	 M308.3306274,19.5073795c-0.5610352-0.4483681-2.0751953-0.5981388-4.2807312-0.5981388
	c-2.5604248,0-3.756958,0.1497707-4.4299927,0.5794849c-0.7102661,0.4673576-1.0653992,1.4955463-1.6633911,3.3834991
	l-1.2149048,4.3551178c-0.0936279,0.5045986-0.2245178,0.5981388-0.4115295,0.5981388
	c-0.1867371,0-0.2431335-0.1494675-0.2431335-0.4300518v-6.2244167c0-1.7944469-0.2050781-2.1496124-2.5603943-2.1496124h-2.3178101
	c-0.3365173,0-0.4673767,0.1498051-0.4673767,0.4300499v9.140255c0,1.3647327,0.1867371,2.1872234,0.7102661,2.6169376
	c0.4859924,0.4300499,1.9440308,0.5608635,4.4113464,0.5608635c2.3177795,0,3.8878174-0.0562649,4.5422058-0.5232525
	c0.6169128-0.4673252,0.8597717-1.2711945,1.3644104-2.8226357l1.4205322-5.0094872
	c0.0747375-0.3551655,0.1867371-0.4673252,0.4112549-0.4673252c0.1870117,0,0.2428589,0.0935059,0.2428589,0.3178577v6.4674225
	c0,1.5887146,0.5049133,1.9252262,2.4303589,1.9252262h2.3361206c0.3365173,0,0.4674072-0.168087,0.4674072-0.4859447v-8.5421162
	C309.078125,20.9280071,308.9472351,20.0123158,308.3306274,19.5073795z M124.6555176,21.9968758h-2.6729279
	c-0.467392,0-0.6355133-0.1308136-0.6355133-0.7662239v-1.9438801c0-0.4114323-0.1497726-0.5795193-0.5421448-0.5795193h-4.6542206
	c-0.2617645,0-0.3740234,0.168087-0.3740234,0.4110603v11.7012634c0,0.3178921,0.2431412,0.4300499,0.4487762,0.4300499
	c1.7381439,0.0559292,4.0748367,0.1494675,7.1590271,0.1494675c4.6353302,0,5.7385101-0.205698,6.5607605-0.7848778
	c0.8408813-0.5608654,1.326889-1.7012463,1.326889-3.6451263c0-1.9624996-0.5418701-3.3458881-1.270752-3.9812984
	C129.216095,22.3147678,128.0384369,21.9968758,124.6555176,21.9968758z M125.3285446,27.5113335
	c-0.2245255,0.1121597-0.6919174,0.168087-1.962944,0.168087c-0.654129,0-1.3457718-0.0559273-1.6447754-0.0749187
	c-0.317894-0.0186195-0.4485016-0.1121597-0.4485016-0.4859447v-0.9905777c0-0.5232525,0.0933685-0.6167908,0.5979996-0.6167908
	h1.6075439c1.0840149,0,1.5700226,0.0186195,1.7942734,0.1494331c0.2056351,0.0935383,0.3737564,0.4114304,0.3737564,0.9719563
	C125.6458969,27.118557,125.5341721,27.3805199,125.3285446,27.5113335z M136.7548218,18.7072525h-4.1871033
	c-0.2801056,0-0.3737488,0.168087-0.3737488,0.4300518v11.1403999c0,0.8034973,0.2617645,1.0654621,1.0656586,1.0654621h4.1307068
	c0.2803802,0,0.3740234-0.1497707,0.3740234-0.4300518V19.7913704
	C137.7643585,19.0437641,137.5023193,18.7072525,136.7548218,18.7072525z M179.0443573,25.123167
	c-0.2992706-0.1867409-0.4301453-0.298933-0.4301453-0.4859772c0-0.1870785,0.1122589-0.2430077,0.3178864-0.5046329
	c0.3926392-0.411396,0.6355133-1.1027355,0.6355133-2.2803917c0-1.0468426-0.3178864-1.8879528-0.9158936-2.2990456
	c-0.7291565-0.5608635-2.1683044-0.7292881-6.8227844-0.7292881c-2.1680298,0-4.9904633,0.0562649-7.2713013,0.1684246
	c-0.1678467,0-0.5418701,0.0935383-0.5418701,0.4110928v2.9910603c0.3416443,0,9.2320709-0.0458088,9.5518494,0.0745468
	c0.4965363,0.1857643,0.4590302,1.2068672,0,1.3604832c-0.2326202,0.0579872-6.3616028,0.0372753-6.6012421,0.0372753v2.6622715
	c0.3664703,0,6.6614227-0.0308304,7.0122375,0.0749207c0.4873657,0.2167282,0.5380859,1.3121777-0.0744781,1.4540558
	c-0.4595642,0.1144524-3.1794586,0.071579-9.8883667,0.071579v2.9191437c0,0.373785,0.298996,0.4859447,0.4860077,0.4859447
	c1.6636658,0.0745811,4.5980988,0.1121922,7.4207916,0.1121922c4.374115,0,6.2617645-0.205698,7.0281525-0.710331
	c0.6355133-0.4486694,1.1776581-1.5700607,1.1776581-3.0093422
	C180.1283722,26.1886292,179.6234741,25.4596786,179.0443573,25.123167z"/>
<path class="st1" d="M46.1263618,31.8875008c-0.4277229,1.1959038-0.9601479,2.3549042-1.5951233,3.4565277
	c-1.1031723,1.913456-2.4986038,3.6597328-4.1279984,5.1476898c-1.1390686,1.0461349-2.4014587,1.9525833-3.73806,2.7342567
	c-0.8074112,0.4724503-1.635601,0.9101257-2.4986038,1.2746696c-2.2908134,0.9722252-4.7654018,1.487114-7.2445774,1.6021385
	c-0.3062859,0.0125847-0.6131134,0.0186539-0.9191322,0.0186539c-2.1782837,0.0004044-4.3576488-0.3145523-6.4422932-0.956337
	c-1.5074196-0.4826736-2.9492645-1.14851-4.3131208-1.9452972c-0.7798872-0.4555511-1.541153-0.9425087-2.2576227-1.4913979
	c-2.2349548-1.7117348-4.1412239-3.8672523-5.5644488-6.3008881c-1.0810466-1.8490944-1.8836007-3.8583794-2.3342619-5.9574947
	c-0.3497343-1.5712414-0.5235219-3.1836033-0.5248713-4.7957287c-0.0018892-3.343256,0.7510118-6.6853313,2.2981009-9.6567926
	c0.1729784-0.3360062,0.3697038-0.6593618,0.5591435-0.9867659c1.0494728-1.8141127,2.3337221-3.4949493,3.8700171-4.9206715
	c1.2094984-1.1267195,2.5541954-2.1017122,3.9833574-2.9303751c0.7081041-0.4108911,1.4310513-0.7969213,2.1817932-1.1255732
	l0.1149578,0.2658429c-0.7002773,0.4147024-1.3824768,0.8466082-2.0339108,1.3152146
	c-0.3308449,0.2378116-0.6554823,0.4823017-0.9658175,0.7447038l-0.6989298,0.5648441l-0.6584501,0.6098094
	C12.766118,8.9439335,12.3796835,9.40242,11.97085,9.8277483c-1.3444262,1.4886656-2.4424744,3.1580334-3.2927933,4.9235725
	c-0.1530085,0.3175879-0.3135738,0.6322069-0.4495811,0.9560347c-1.2586126,2.8490486-1.7465138,5.9435978-1.5867586,8.966938
	c0.077179,1.4567566,0.3027797,2.8972511,0.6681657,4.2853279c0.4881711,1.8616409,1.2696767,3.6136208,2.2813697,5.2111053
	c1.754879,2.7717323,4.2051792,5.0754318,7.0297709,6.6698151c2.8540058,1.6109123,6.0893211,2.497963,9.3753681,2.4094505
	c0.2649994-0.0071526,0.5305386-0.0202065,0.7963467-0.0402069c2.9924431-0.0533333,5.8998814-0.9179878,8.4848385-2.3876953
	c2.8367348-1.6130028,5.2840691-3.9557304,7.0308533-6.7548866c1.2831688-2.0574226,2.1885376-4.3609219,2.5887337-6.8042393
	c0.1527405-0.8520393,0.2326164-1.718483,0.2739067-2.5886707c0.1584053-3.3761101-0.5289192-6.8261623-2.0824852-9.9436512
	c-0.096611-0.193656-0.1797256-0.3924055-0.2828102-0.5833292c-1.5257721-2.8699274-3.7863617-5.3778086-6.5378227-7.3360925
	c-1.1563377-0.8228946-2.3895836-1.5587606-3.7064819-2.16749l0.0909386-0.2752204
	c1.3889542,0.4570026,2.7244759,1.064383,3.9884872,1.7967405c3.0121422,1.7456703,5.6051941,4.2172556,7.4672089,7.1684103
	c0.1233253,0.1967258,0.2401733,0.3974657,0.3570213,0.5981712c0.6530533,1.1221323,1.1922264,2.3074789,1.628315,3.5296602
	l-0.0426369-0.142046l0.845459,0.1423836c-0.0008087-0.0033741-0.002697-0.0076904-0.0035057-0.011097
	c-0.2666206-0.8368607-1.431591-3.1605978-1.8460922-3.8249855c-0.3939896-0.7253752-1.7964363-2.8511724-2.3747406-3.48139
	l1.1420364-3.0446596c0.1689301-0.4070454,0.0831146-0.8716378-0.2112999-1.1998515
	c-1.2578011-1.4032555-2.898262-2.6798809-4.670681-3.7030768c-1.772419-1.0232297-3.698391-1.8057472-5.5423203-2.193599
	C33.3740082-0.0001349,33.3586273,0.0025974,33.3429756,0l-1.5425034,8.1747065
	c-0.2196636,1.4453535,0.3427162,2.8947544,1.4796257,3.8110199c0.0083656,0.0064087,0.014843,0.0141335,0.0226669,0.0205431
	c0.4846649,0.3843431,1.0138512,0.8194876,1.5373764,1.2609396c0.0779877,0.0634165,0.1538162,0.1295652,0.2304573,0.1945333
	c0.107132,0.0915823,0.2172318,0.181242,0.3224792,0.2728252c0.0507317,0.0440197,0.0858116,0.0884113,0.1238632,0.1327696
	c1.12854,1.0411072,2.0967865,2.2522593,2.8440208,3.6069403c1.12854,2.0456829,1.7743073,4.394989,1.7743073,6.8966312
	c0,0.1024437-0.0129509,0.2014809-0.01511,0.3033848c-0.0537033,2.5516663-0.7766495,4.9330864-1.9988289,6.9881134
	c-1.2596931,2.1175995-3.0442581,3.8810463-5.1826019,5.109066c-2.0533409,1.1791039-4.4216042,1.8668327-6.9525928,1.8934479
	c-0.0512714,0.000576-0.1006565,0.0076904-0.1519279,0.0076904c-2.5145264,0-4.874155-0.6533546-6.9264164-1.7925224
	c-2.165062-1.2015724-3.9755316-2.9533119-5.2657175-5.0603886c-0.6190519-1.0111542-1.1271915-2.0969906-1.4817839-3.2533607
	c0,0-0.0016193-0.0005074-0.0018892-0.000742c-0.2577133-1.0065327-0.5507774-1.9440498-1.4205265-2.5022488
	c-0.0439863-0.0280647-0.0817661-0.0598736-0.1289911-0.0859146c-0.3273363-0.1827621-0.6087971-0.4791985-0.7704411-0.8150368
	c-0.0758305-0.1565838-0.1219759-0.3216343-0.1370878-0.4881039c-0.0288744-0.31283,0.0585594-0.6296768,0.3219395-0.9014893
	c0.2339659-0.2418251,0.6036692-0.447794,1.1455421-0.5830269c3.3079052-0.8259296,7.4539862,0.9838982,8.7903166,3.8913021
	l0.0018902,0.0001698c0.0002689,0.0020237,0.0013485,0.0040474,0.0021591,0.0060043
	c0.2730942,0.6770363,0.6579113,1.2949409,1.13097,1.8355999c1.1844006,1.3538723,2.9203911,2.2132645,4.8603916,2.2132645
	c3.5691261,0,6.4617233-2.893034,6.4617233-6.4618244s-2.8925972-6.4618893-6.4617233-6.4618893
	c-0.0164623,0-0.032114,0.0023937-0.0483055,0.0024948c-0.0607166,0.000473-0.1198158,0.0069828-0.1802635,0.0090752
	c-4.829628-0.0647335-7.3079929-4.3575821-7.3079929-7.6572227l-0.1718998-1.4275093l-1.0591869-8.7897434
	c-1.4232264,0.4319734-2.8607531,1.0684308-4.2094984,1.8472713c-1.7724199,1.023196-3.4134188,2.2998214-4.6712217,3.7030768
	C8.0120497,6.2280602,7.9259658,6.6926527,8.0951662,7.0996981l1.1423035,3.0446596
	c-0.5788422,0.6302176-1.9807487,2.7560148-2.3750095,3.48139c-0.4161196,0.6670189-1.5899968,3.0079937-1.8495989,3.8360825
	l-3.2080586,0.5331688c-0.4371681,0.0569401-0.7963476,0.3636665-0.9337047,0.7826538
	C0.2849689,20.5687256,0,22.6278343,0,24.6742935c0,2.0464268,0.2849689,4.1056366,0.8710979,5.8966427
	c0.1373571,0.4189186,0.4965366,0.7256451,0.9337047,0.7825851l3.2080586,0.5332718
	c0.2596021,0.8280201,1.4334793,3.1690311,1.8495989,3.8360806c0.3942609,0.7253075,1.7961674,2.8511734,2.3750095,3.4813576
	l-1.1423035,3.0446587c-0.1692004,0.4069786-0.0831165,0.8716393,0.2110281,1.199852
	c1.257803,1.4032555,2.8988018,2.6798477,4.6712217,3.7031097c1.7718801,1.0231972,3.6978483,1.8057823,5.5423212,2.193531
	c0.4314995,0.0907059,0.8767643-0.0670929,1.1447315-0.4171982l2.0652142-2.5114555
	c0.8397961,0.1870766,3.4153099,0.3402214,4.2248802,0.3166084c0.8098392,0.023613,3.3848152-0.1295319,4.2251492-0.3166084
	l2.0652142,2.5114555c0.2679672,0.3501053,0.7132301,0.5079041,1.1447334,0.4171982
	c1.8439293-0.3877487,3.7699013-1.1703339,5.5423203-2.193531c1.772419-1.023262,3.4128799-2.2998543,4.670681-3.7031097
	c0.2944145-0.3282127,0.3802299-0.7928734,0.2112999-1.199852l-1.1420364-3.0446587
	c0.5783043-0.6301842,1.980751-2.7560501,2.3747406-3.4813576c0.4145012-0.6643867,1.5794716-2.9881897,1.8460922-3.8250179
	c0.0008087-0.0034065,0.002697-0.0077915,0.0035057-0.0110626l-0.7998543,0.099577L46.1263618,31.8875008z M34.2289124,22.1463757
	c0.17379,0.617569,0.2614937,1.2523384,0.3108749,1.8860645c0.0029716,0.3186665,0.0240173,0.6366596-0.012413,0.9534378
	c-0.0148392,0.3178234-0.0461426,0.6330509-0.1128006,0.9435215c-0.2102165,1.2462654-0.6927223,2.4496918-1.4488602,3.462431
	c-1.4529095,2.0760765-3.8910656,3.3967896-6.4549751,3.5242653c-2.5622921,0.1482162-5.2114754-0.9104309-7.0448837-2.917963
	c0.7280731,1.149826,1.7913094,2.0908146,3.0056648,2.7762203c1.22785,0.6643867,2.6348839,1.0381393,4.0559502,1.0420837
	c1.4224148,0.0244217,2.851038-0.3264923,4.1377144-0.9618378c1.2855988-0.6462402,2.3876953-1.6312828,3.2409821-2.7878571
	c1.69767-2.3369923,2.1521072-5.5109825,1.1838608-8.194809c-0.470089-1.345068-1.2772331-2.550621-2.2980995-3.5038567
	c-0.6244507-0.5558033-1.3217602-1.0163822-2.060358-1.3772812c-0.494648-0.2419262-1.0052166-0.4469833-1.5357552-0.5766506
	c0.4312305,0.1883945,0.8349361,0.4199657,1.2248802,0.6694469C32.2843246,18.2758198,33.6543884,20.107811,34.2289124,22.1463757z"
	/>
</svg>
