<svg xmlns="http://www.w3.org/2000/svg" xmlns:xlink="http://www.w3.org/1999/xlink" preserveAspectRatio="xMidYMid" width="11" height="14" viewBox="0 0 11 14"><defs><style>.cls-2{fill: #a0cb00;}</style></defs><path d="M11.012,11.977 C11.025,11.915 11.039,11.854 11.026,11.786 C11.006,11.588 10.616,11.299 10.460,11.172 C10.019,10.778 9.568,10.392 9.138,9.992 C8.940,9.800 8.716,9.473 8.443,9.413 C7.904,9.293 6.761,10.709 6.284,10.602 C6.045,10.549 5.786,10.261 5.601,10.091 C4.193,8.845 3.328,7.491 2.794,5.694 C2.718,5.455 2.566,5.099 2.619,4.861 C2.726,4.387 4.500,3.961 4.620,3.425 C4.681,3.152 4.479,2.812 4.389,2.552 C4.208,1.995 4.048,1.425 3.878,0.861 C3.829,0.666 3.731,0.192 3.559,0.090 C3.503,0.049 3.442,0.036 3.380,0.022 C3.062,-0.049 2.412,-0.046 2.091,0.021 C1.617,0.109 1.224,0.538 0.914,0.884 C0.515,1.340 0.229,1.830 0.097,2.418 C-0.086,3.236 0.084,4.048 0.191,4.856 C0.265,5.435 0.387,6.007 0.579,6.557 C1.172,8.256 2.578,10.460 3.873,11.717 C4.292,12.124 4.760,12.477 5.256,12.790 C5.945,13.229 6.613,13.728 7.434,13.911 C8.026,14.043 8.593,13.994 9.177,13.828 C9.624,13.697 10.182,13.526 10.464,13.137 C10.661,12.877 10.941,12.293 11.012,11.977 Z" id="path-1" class="cls-2" fill-rule="evenodd"></path></svg>