
<svg>
    <symbol id="cart" width="24" height="22" version="1.1" xmlns="http://www.w3.org/2000/svg" xmlns:xlink="http://www.w3.org/1999/xlink" x="0px" y="0px" viewBox="0 0 1000 1000" enable-background="new 0 0 1000 1000" xml:space="preserve">
        <g><path d="M186.1,132.5H40.6c-16.9,0-30.6-13.7-30.6-30.6C10,85,23.7,71.3,40.6,71.3h145.5c16.9,0,30.6,13.7,30.6,30.6C216.7,118.8,203,132.5,186.1,132.5L186.1,132.5z M844.5,775.6H346.9c-16.9,0-30.6-13.7-30.6-30.6c0-16.9,13.7-30.6,30.6-30.6h497.7c16.9,0,30.6,13.7,30.6,30.6C875.2,761.9,861.4,775.6,844.5,775.6L844.5,775.6z M959.4,255H232c-16.9,0-30.6-13.7-30.6-30.6c0-16.9,13.7-30.6,30.6-30.6h727.3c16.9,0,30.6,13.7,30.6,30.6C990,241.3,976.3,255,959.4,255L959.4,255z M911.5,438.8H279.9c-16.9,0-30.6-13.7-30.6-30.6c0-16.9,13.7-30.6,30.6-30.6h631.6c16.9,0,30.6,13.7,30.6,30.6C942.1,425,928.4,438.8,911.5,438.8L911.5,438.8z M867.5,622.5H327.7c-16.9,0-30.6-13.7-30.6-30.6c0-16.9,13.7-30.6,30.6-30.6h539.8c16.9,0,30.6,13.7,30.6,30.6C898.1,608.8,884.4,622.5,867.5,622.5L867.5,622.5z M588,618.7c-16.9,0-30.6-13.7-30.6-30.6V258.8c0-16.9,13.7-30.6,30.6-30.6c16.9,0,30.6,13.7,30.6,30.6V588C618.7,605,605,618.7,588,618.7L588,618.7z M798.8,236.8l-39.2,326.9c-2,16.8-17.3,28.8-34.1,26.8c-16.8-2-28.8-17.3-26.8-34L738,229.6c2-16.8,17.3-28.8,34.1-26.8C788.9,204.8,800.8,220.1,798.8,236.8L798.8,236.8z M988.3,232.6l-88.3,356c-4,16.4-20.6,26.5-37.1,22.4c-16.4-4-26.5-20.6-22.4-37.1l88.3-356c4-16.4,20.6-26.5,37.1-22.4C982.3,199.6,992.3,216.2,988.3,232.6L988.3,232.6z M451.5,595.2c-16.8,2.2-32.1-9.7-34.3-26.5l-39.4-307.6c-2.2-16.8,9.7-32.1,26.5-34.3c16.8-2.2,32.1,9.7,34.3,26.5L478,560.9C480.1,577.7,468.3,593,451.5,595.2L451.5,595.2z M352.6,768.4c-16.5,4.1-33.1-5.9-37.2-22.3L158,115.5c-4.1-16.4,5.9-33,22.4-37.1c16.5-4.1,33.1,5.9,37.2,22.3l157.3,630.6C379,747.7,369,764.4,352.6,768.4L352.6,768.4z M400.5,928.7c-33.8,0-61.2-27.4-61.2-61.2c0-33.8,27.4-61.3,61.2-61.3c33.8,0,61.2,27.4,61.2,61.3C461.7,901.3,434.3,928.7,400.5,928.7L400.5,928.7z M775.6,928.7c-33.8,0-61.2-27.4-61.2-61.2c0-33.8,27.4-61.3,61.2-61.3c33.8,0,61.3,27.4,61.3,61.3C836.9,901.3,809.4,928.7,775.6,928.7L775.6,928.7z"/></g>
    </symbol>


    <symbol version="1.1" width="30" height="28" id="catalog" xmlns="http://www.w3.org/2000/svg" xmlns:xlink="http://www.w3.org/1999/xlink" x="0px" y="0px"
	 viewBox="0 0 230 230" style="enable-background:new 0 0 230 230;" xml:space="preserve">
        <g id="XMLID_104_">
            <path id="XMLID_105_" d="M95,70h120c8.284,0,15-6.716,15-15s-6.716-15-15-15H95c-8.284,0-15,6.716-15,15S86.716,70,95,70z"/>
            <path id="XMLID_106_" d="M215,100H95c-8.284,0-15,6.716-15,15s6.716,15,15,15h120c8.284,0,15-6.716,15-15S223.284,100,215,100z"/>
            <path id="XMLID_107_" d="M215,160H95c-8.284,0-15,6.716-15,15s6.716,15,15,15h120c8.284,0,15-6.716,15-15S223.284,160,215,160z"/>
            <path id="XMLID_108_" d="M15,160c-3.95,0-7.811,1.6-10.61,4.39C1.6,167.19,0,171.05,0,175c0,3.95,1.6,7.81,4.39,10.61
                C7.189,188.4,11.05,190,15,190s7.81-1.6,10.609-4.39C28.399,182.81,30,178.95,30,175c0-3.95-1.601-7.81-4.391-10.61
                C22.81,161.6,18.95,160,15,160z"/>
            <path id="XMLID_109_" d="M15,100c-3.95,0-7.811,1.6-10.61,4.39C1.6,107.19,0,111.05,0,115c0,3.95,1.6,7.81,4.39,10.61
                C7.189,128.4,11.05,130,15,130s7.81-1.6,10.609-4.39C28.399,122.81,30,118.95,30,115c0-3.95-1.601-7.81-4.391-10.61
                C22.81,101.6,18.95,100,15,100z"/>
            <path id="XMLID_110_" d="M15,40c-3.95,0-7.811,1.6-10.61,4.39C1.6,47.19,0,51.05,0,55c0,3.95,1.6,7.81,4.39,10.61
                C7.189,68.4,11.05,70,15,70s7.81-1.6,10.609-4.39C28.399,62.81,30,58.95,30,55c0-3.95-1.601-7.81-4.391-10.61
                C22.81,41.6,18.95,40,15,40z"/>
        </g>
    </symbol>

<svg version="1.1" id="click" xmlns="http://www.w3.org/2000/svg" xmlns:xlink="http://www.w3.org/1999/xlink" x="0px" y="0px" viewBox="0 0 1000 1000" enable-background="new 0 0 1000 1000" xml:space="preserve">
<metadata> Svg Vector Icons : http://www.onlinewebfonts.com/icon </metadata>
<g><path d="M819.5,386.3h-2.5c-18.4,0-33.4,5.3-48,14.3c-12.7-37.1-45-63.7-86.6-63.7c-18.4,0-35.9,5.3-50.4,14.3c-12.7-37-45-63.7-86.6-63.7c-16.2,0-31.3,4.1-44.7,11.2v-95.3c0-51.9-39.3-94-91.6-94s-94.7,42.1-94.7,94v365l-57.5-57.3c-37-36.7-102.4-31.5-133.9,0s-52.1,94.9-7,140l264.5,262.7c5.5,5.4,11.5,9.9,17.8,13.8c48.2,39.3,103.5,62.6,220.3,62.6c266.9,0,291.6-144,291.6-321.6v-188C910.1,428.4,871.8,386.3,819.5,386.3z M860.3,668.4c0,150.3-0.7,272.1-241.8,272.1c-102.1,0-163.4-22.8-209.9-68.9L158.3,622.9c-22.2-22.2-16.6-50.5,1.6-68.6c18.1-18.1,51.4-18.8,68.9-1.4c0,0,43.9,43.7,81.8,81.3c28.6,28.5,53.8,53.5,53.8,53.5V213.2c0-24.6,20.1-44.5,44.9-44.5c24.8,0,41.7,19.9,41.7,44.5V515h0.5c-0.3,1.6-0.5,3.3-0.5,5c0,13.7,11.2,24.7,24.9,24.7c13.8,0,24.9-11.1,24.9-24.7c0-1.7-0.2-3.4-0.5-5h0.5V391.3c0-24.6,17.9-44.5,42.7-44.5c0,0,43.9-0.6,43.9,44.5v163.3h0.5c-0.3,1.6-0.5,3.3-0.5,5c0,13.7,11.2,24.7,24.9,24.7c13.8,0,24.9-11.1,24.9-24.7c0-1.7-0.2-3.3-0.5-5h0.5V440.8c0-24.6,17.6-44.5,42.4-44.5c0,0,44.8,2.8,44.8,44.5v143.5h0.5c-0.3,1.6-0.5,3.3-0.5,4.9c0,13.7,11.2,24.7,24.9,24.7c13.8,0,24.3-11.1,24.3-24.7c0-1.7-0.2-3.3-0.5-4.9h0.5v-98c0-24.6,18.5-44.5,43.3-44.5c0,0,43.4-1.8,43.4,44.5C860.3,486.3,860.3,628.4,860.3,668.4z M277.5,343.4v-83.1c-7.9-17.7-12.4-37.3-12.4-58c0-78.8,63.9-142.7,142.7-142.7s142.7,63.9,142.7,142.7c0,10.8-1.3,21.2-3.6,31.3c17.9,0.7,34.1,8.1,45.9,20.1c4.6-16.4,7.3-33.5,7.3-51.4C600,96.1,513.9,10,407.7,10S215.4,96.1,215.4,202.3C215.4,258.1,239.4,308.3,277.5,343.4z"/></g>
</svg>



    <symbol version="1.1" id="star" xmlns="http://www.w3.org/2000/svg" xmlns:xlink="http://www.w3.org/1999/xlink" x="0px" y="0px"
	  viewBox="0 0 248.294 248.294" style="enable-background:new 0 0 248.294 248.294;"
	 xml:space="preserve">
        <g>
            <g>
                <path d="M55.688,242.322c2.882,0,6.069-0.719,9.439-2.24l59.032-32.156l59.032,32.156c3.369,1.521,6.557,2.24,9.437,2.24
                    c8.933,0,14.963-6.917,14.543-18.36l-7.71-65.312l44.062-45.268c9.166-12.062,4.732-25.004-9.908-28.908l-65.53-10.529
                    l-28.932-58.22c-4.242-6.49-9.959-9.754-15.732-9.754c-5.512,0-11.063,2.973-15.422,8.952L74.461,73.941l-59.893,10.06
                    c-14.566,4.163-18.943,17.314-9.777,29.377l44.06,45.264l-7.71,65.311C40.721,235.405,46.753,242.322,55.688,242.322z
                    M20.734,102.347l56.896-9.558l8.961-1.505l4.492-7.906l32.191-56.649l27.689,55.713l4.378,8.809l9.712,1.557l62.101,9.98
                    l-41.388,42.515l-6.353,6.534l1.064,9.045l7.057,59.795l-54.231-29.548l-9.145-4.979l-9.147,4.979l-54.227,29.548l7.052-59.795
                    l1.066-9.045l-6.352-6.534L20.734,102.347z"/>
            </g>
        </g>
    </symbol>


    <symbol version="1.1" id="pencil" xmlns="http://www.w3.org/2000/svg" viewBox="0 0 512 512" xmlns:xlink="http://www.w3.org/1999/xlink" enable-background="new 0 0 512 512">
    <g>
        <g>
        <path d="m455.1,137.9l-32.4,32.4-81-81.1 32.4-32.4c6.6-6.6 18.1-6.6 24.7,0l56.3,56.4c6.8,6.8 6.8,17.9 0,24.7zm-270.7,271l-81-81.1 209.4-209.7 81,81.1-209.4,209.7zm-99.7-42l60.6,60.7-84.4,23.8 23.8-84.5zm399.3-282.6l-56.3-56.4c-11-11-50.7-31.8-82.4,0l-285.3,285.5c-2.5,2.5-4.3,5.5-5.2,8.9l-43,153.1c-2,7.1 0.1,14.7 5.2,20 5.2,5.3 15.6,6.2 20,5.2l153-43.1c3.4-0.9 6.4-2.7 8.9-5.2l285.1-285.5c22.7-22.7 22.7-59.7 0-82.5z"/>
        </g>
    </g>
    </symbol>

    <symbol version="1.1" id="lorry" xmlns="http://www.w3.org/2000/svg" xmlns:xlink="http://www.w3.org/1999/xlink" x="0px" y="0px"
	 viewBox="0 0 491.1 491.1" style="enable-background:new 0 0 491.1 491.1;" xml:space="preserve">
    <g transform="translate(0 -540.36)">
        <g>
            <g>
                <path d="M401.5,863.31c-12,0-23.4,4.7-32,13.2c-8.6,8.6-13.4,19.8-13.4,31.8s4.7,23.2,13.4,31.8c8.7,8.5,20,13.2,32,13.2
                    c24.6,0,44.6-20.2,44.6-45S426.1,863.31,401.5,863.31z M401.5,933.31c-13.8,0-25.4-11.4-25.4-25s11.6-25,25.4-25
                    c13.6,0,24.6,11.2,24.6,25S415.1,933.31,401.5,933.31z"/>
                <path d="M413.1,713.41c-1.8-1.7-4.2-2.6-6.7-2.6h-51.3c-5.5,0-10,4.5-10,10v82c0,5.5,4.5,10,10,10h81.4c5.5,0,10-4.5,10-10v-54.9
                    c0-2.8-1.2-5.5-3.3-7.4L413.1,713.41z M426.5,792.81h-61.4v-62.1h37.4l24,21.6V792.81z"/>
                <path d="M157.3,863.31c-12,0-23.4,4.7-32,13.2c-8.6,8.6-13.4,19.8-13.4,31.8s4.7,23.2,13.4,31.8c8.7,8.5,20,13.2,32,13.2
                    c24.6,0,44.6-20.2,44.6-45S181.9,863.31,157.3,863.31z M157.3,933.31c-13.8,0-25.4-11.4-25.4-25s11.6-25,25.4-25
                    c13.6,0,24.6,11.2,24.6,25S170.9,933.31,157.3,933.31z"/>
                <path d="M90.6,875.61H70.5v-26.6c0-5.5-4.5-10-10-10s-10,4.5-10,10v36.6c0,5.5,4.5,10,10,10h30.1c5.5,0,10-4.5,10-10
                    S96.1,875.61,90.6,875.61z"/>
                <path d="M141.3,821.11c0-5.5-4.5-10-10-10H10c-5.5,0-10,4.5-10,10s4.5,10,10,10h121.3C136.8,831.11,141.3,826.71,141.3,821.11z"
                    />
                <path d="M30.3,785.01l121.3,0.7c5.5,0,10-4.4,10.1-9.9c0.1-5.6-4.4-10.1-9.9-10.1l-121.3-0.7c-0.1,0-0.1,0-0.1,0
                    c-5.5,0-10,4.4-10,9.9C20.3,780.51,24.8,785.01,30.3,785.01z"/>
                <path d="M50.7,739.61H172c5.5,0,10-4.5,10-10s-4.5-10-10-10H50.7c-5.5,0-10,4.5-10,10S45.2,739.61,50.7,739.61z"/>
                <path d="M487.4,726.11L487.4,726.11l-71.6-59.3c-1.8-1.5-4-2.3-6.4-2.3h-84.2v-36c0-5.5-4.5-10-10-10H60.5c-5.5,0-10,4.5-10,10
                    v73.2c0,5.5,4.5,10,10,10s10-4.5,10-10v-63.2h234.8v237.1h-82c-5.5,0-10,4.5-10,10s4.5,10,10,10h122.1c5.5,0,10-4.5,10-10
                    s-4.5-10-10-10h-20.1v-191.1h80.6l65.2,54l-0.7,136.9H460c-5.5,0-10,4.5-10,10s4.5,10,10,10h20.3c5.5,0,10-4.4,10-9.9l0.8-151.6
                    C491,730.91,489.7,728.01,487.4,726.11z"/>
            </g>
        </g>
    </g>

    </symbol>

    <symbol id="check" width="26px" height="26px" version="1.0" xmlns="http://www.w3.org/2000/svg"
        viewBox="0 0 1280.000000 996.000000">

        <g transform="translate(0.000000,996.000000) scale(0.100000,-0.100000)"
        stroke="none">
        <path d="M10690 9944 c-23 -10 -1004 -984 -2901 -2881 -1577 -1576 -2871
        -2864 -2877 -2862 -8 3 -767 720 -2375 2244 -191 182 -366 341 -387 353 -49
        30 -109 31 -181 6 -68 -24 -37 6 -1095 -1074 -565 -577 -843 -868 -855 -895
        -23 -49 -24 -83 -3 -134 12 -31 299 -308 1352 -1307 1172 -1112 1466 -1396
        2382 -2310 1071 -1069 1086 -1083 1160 -1084 14 0 37 8 51 18 79 52 2101 2053
        4767 4716 2383 2382 3028 3031 3047 3070 27 54 31 99 14 161 -9 35 -140 170
        -967 998 -647 647 -970 964 -998 977 -48 24 -86 25 -134 4z"/>
        </g>
    </symbol>

    <symbol id="check2" version="1.1" xmlns="http://www.w3.org/2000/svg" xmlns:xlink="http://www.w3.org/1999/xlink" x="0px" y="0px" viewBox="0 0 1000 1000" enable-background="new 0 0 1000 1000" xml:space="preserve">
        <g><path d="M974.5,153.9l-18.8-18.8c-20.8-20.8-55.5-20.8-77.3,0L374.2,708.7L132.4,459c-16.8-24.8-50.5-31.7-75.3-15.9L34.3,459c-24.8,16.8-31.7,49.5-15.9,75.3c0,0,326.9,336.8,335.8,340.8c3,1,10.9,4,11.9,4c17.8,4,36.7,0,50.5-13.9l556.8-634C995.3,209.4,995.3,175.7,974.5,153.9z"/></g>
    </symbol>

    <symbol id="book" xmlns="http://www.w3.org/2000/svg"   viewBox="0 0 24 24"  
    stroke-width="2" stroke-linecap="round" stroke-linejoin="round" class="feather feather-bookmark">
        <path d="M19 21l-7-5-7 5V5a2 2 0 0 1 2-2h10a2 2 0 0 1 2 2z"></path>
    </symbol>


<symbol version="1.1" id="heart" xmlns="http://www.w3.org/2000/svg" xmlns:xlink="http://www.w3.org/1999/xlink" x="0px" y="0px"
	 viewBox="0 0 230 230" style="enable-background:new 0 0 230 230;" xml:space="preserve">
<path d="M213.588,120.982L115,213.445l-98.588-92.463C-6.537,96.466-5.26,57.99,19.248,35.047l2.227-2.083
	c24.51-22.942,62.984-21.674,85.934,2.842L115,43.709l7.592-7.903c22.949-24.516,61.424-25.784,85.936-2.842l2.227,2.083
	C235.26,57.99,236.537,96.466,213.588,120.982z"/>
</symbol>








    <symbol id="search" width="18" height="18" viewBox="0 0 18 18" fill="none" xmlns="http://www.w3.org/2000/svg">
        <path d="M13.2094 11.6186C14.0951 10.409 14.6249 8.92328 14.6249 7.31261C14.6249 3.28064 11.3444 0.00012207 7.31245 0.00012207C3.28048 0.00012207 0 3.28064 0 7.31261C0 11.3446 3.28052 14.6251 7.31248 14.6251C8.92315 14.6251 10.409 14.0952 11.6186 13.2094L16.4092 18L18 16.4092C18 16.4092 13.2094 11.6186 13.2094 11.6186ZM7.31248 12.3751C4.52086 12.3751 2.25001 10.1042 2.25001 7.31261C2.25001 4.52098 4.52086 2.25013 7.31248 2.25013C10.1041 2.25013 12.375 4.52098 12.375 7.31261C12.375 10.1042 10.1041 12.3751 7.31248 12.3751Z" fill="#373334"/>
    </symbol>

    <symbol id="fb" width="16" height="16" viewBox="0 0 16 16" fill="none" xmlns="http://www.w3.org/2000/svg">
        <path d="M16 8C16 3.58172 12.4183 0 8 0C3.58172 0 0 3.58172 0 8C0 11.993 2.92547 15.3027 6.75 15.9028V10.3125H4.71875V8H6.75V6.2375C6.75 4.2325 7.94438 3.125 9.77172 3.125C10.6467 3.125 11.5625 3.28125 11.5625 3.28125V5.25H10.5538C9.56 5.25 9.25 5.86672 9.25 6.5V8H11.4688L11.1141 10.3125H9.25V15.9028C13.0745 15.3027 16 11.993 16 8Z" fill="#373334"/>
    </symbol>

    <symbol id="vk" width="19" height="11" viewBox="0 0 19 11" fill="none" xmlns="http://www.w3.org/2000/svg">
        <path d="M10.6961 2.78914C10.6961 3.24463 10.6777 3.67395 10.6751 4.09803C10.6694 4.32934 10.6968 4.56028 10.7565 4.78388C10.7927 4.92661 10.8737 5.05409 10.9877 5.14775C11.0159 5.16981 11.0489 5.18488 11.0841 5.19171C11.1192 5.19853 11.1555 5.19693 11.19 5.18702C11.3127 5.14796 11.425 5.08174 11.5184 4.9933C11.743 4.78701 11.9455 4.55803 12.1226 4.31007C12.7508 3.44347 13.2688 2.50263 13.6647 1.50905C13.7357 1.34152 13.804 1.1766 13.8696 1.00644C13.9166 0.876393 14.0102 0.768241 14.1324 0.70278C14.2088 0.674728 14.29 0.661403 14.3714 0.663513C14.4082 0.663513 14.4476 0.663513 14.487 0.663513H17.1141C17.2928 0.663513 17.4714 0.663513 17.6396 0.663513C17.7299 0.67511 17.8183 0.698888 17.9023 0.734193C17.9704 0.754001 18.0299 0.795945 18.0713 0.853345C18.1127 0.910745 18.1337 0.980302 18.1308 1.05094C18.1308 1.23066 18.0951 1.4086 18.0258 1.5745C17.8496 1.99947 17.6276 2.40411 17.3637 2.78129C16.8725 3.52997 16.3129 4.22891 15.7874 4.94357C15.6114 5.18178 15.4459 5.42785 15.2883 5.67654C15.195 5.81417 15.1523 5.97971 15.1674 6.14512C15.1899 6.30534 15.2636 6.45407 15.3776 6.5692C15.5694 6.77339 15.7638 6.97495 15.9687 7.16605C16.5177 7.65436 17.0329 8.17911 17.5108 8.73671C17.7336 9.00142 17.9258 9.29033 18.0836 9.59796C18.1223 9.68099 18.1489 9.76916 18.1624 9.85974C18.1861 9.95989 18.1767 10.065 18.1355 10.1594C18.0943 10.2538 18.0235 10.3323 17.9338 10.3833C17.7582 10.4938 17.5556 10.5545 17.348 10.5587C16.573 10.5796 15.798 10.5744 15.0256 10.6189C14.5288 10.643 14.0417 10.4762 13.6647 10.1529C13.38 9.91973 13.1163 9.66221 12.8766 9.3833C12.6139 9.09797 12.3696 8.81001 12.0885 8.53776C11.969 8.42091 11.8337 8.32134 11.6865 8.24195C11.5921 8.18437 11.4802 8.16223 11.3709 8.1795C11.2616 8.19678 11.162 8.25234 11.0901 8.33619C10.96 8.49244 10.8691 8.67728 10.8248 8.87545C10.7405 9.17751 10.6938 9.48874 10.6856 9.80215C10.6816 9.88015 10.6737 9.95791 10.6619 10.0351C10.6471 10.1341 10.6049 10.2271 10.5399 10.3034C10.4749 10.3797 10.3898 10.4364 10.2941 10.4671C10.1668 10.5202 10.0302 10.5477 9.89218 10.5482C9.54539 10.5482 9.19861 10.5482 8.84132 10.5482C8.22921 10.5412 7.6233 10.425 7.05225 10.2053C6.02106 9.8182 5.0984 9.18972 4.36207 8.37284C3.63138 7.57185 2.98031 6.70217 2.418 5.77602C1.52735 4.3372 0.737343 2.8389 0.0535866 1.29178C0.00895893 1.18973 -0.00824345 1.07786 0.00367123 0.967174C0.00619388 0.925792 0.0200053 0.88588 0.0436163 0.851743C0.0672272 0.817606 0.099742 0.790539 0.137655 0.773459C0.267196 0.708281 0.410248 0.674214 0.555368 0.673984H3.16673C3.32159 0.684435 3.47006 0.739476 3.59412 0.832419C3.71817 0.925362 3.81247 1.05221 3.86555 1.19754C4.09111 1.79172 4.36251 2.36761 4.67733 2.92003C5.01816 3.535 5.40179 4.12544 5.82538 4.68702C5.96908 4.89475 6.14668 5.07703 6.35081 5.22628C6.41583 5.28043 6.49567 5.31388 6.57998 5.32228C6.6643 5.33068 6.7492 5.31365 6.82369 5.2734C6.90514 5.22484 6.96871 5.1514 7.00496 5.06398C7.10038 4.84556 7.15897 4.61294 7.17835 4.37551C7.2357 3.82243 7.24713 3.26557 7.21251 2.71061C7.20611 2.37937 7.17184 2.04924 7.11005 1.72371C7.09429 1.64256 7.06539 1.56403 7.04962 1.48287C7.03067 1.40741 6.99548 1.33695 6.94649 1.27638C6.8975 1.21581 6.83588 1.16658 6.7659 1.13209C6.58557 1.0204 6.38115 0.953101 6.16954 0.935761C6.10911 0.935761 6.0881 0.904348 6.11437 0.851992C6.13686 0.799878 6.16696 0.751362 6.20369 0.708015C6.39582 0.499809 6.65524 0.365464 6.93666 0.328439C7.34437 0.258719 7.75783 0.228039 8.17141 0.236817C8.63116 0.236817 9.09353 0.236817 9.5559 0.265612C9.75654 0.278288 9.95542 0.310732 10.1496 0.36247C10.3043 0.393097 10.444 0.474944 10.5461 0.594709C10.6481 0.714473 10.7066 0.865114 10.7118 1.02215C10.7342 1.27455 10.7421 1.52801 10.7355 1.7813C10.7302 2.12423 10.7092 2.46977 10.6961 2.78914Z" fill="#373334"/>
    </symbol>

    <symbol id="ok" width="16" height="16" viewBox="0 0 16 16" fill="none" xmlns="http://www.w3.org/2000/svg">
        <g clip-path="url(#clip0_2_193)">
        <circle cx="8" cy="8" r="8" fill="#373334"/>
        <path d="M9.7693 12.659L9.30963 12.7903C8.40512 13.1979 7.39775 13.3205 6.42128 13.1416C6.24049 13.1179 6.07262 13.0348 5.94405 12.9053C5.85376 12.7975 5.79069 12.6696 5.76018 12.5323C5.72966 12.3951 5.73259 12.2526 5.76873 12.1168C5.81015 11.9258 5.91988 11.7566 6.07727 11.6411C6.23466 11.5255 6.42888 11.4715 6.62343 11.4892C6.87844 11.4883 7.12189 11.5305 7.3769 11.5296C7.93038 11.5016 8.47357 11.3699 8.97824 11.1413C9.74153 10.8229 10.4051 10.3051 10.8996 9.642C11.0618 9.40693 11.2032 9.1581 11.3221 8.89834C11.426 8.66182 11.6004 8.46326 11.8214 8.32975C11.9581 8.25382 12.114 8.21961 12.27 8.23134C12.426 8.24307 12.5752 8.30023 12.6992 8.39576C12.7872 8.44724 12.8641 8.51566 12.9255 8.59706C12.9868 8.67847 13.0315 8.77123 13.0568 8.86998C13.0821 8.96872 13.0876 9.07149 13.073 9.17233C13.0583 9.27316 13.0238 9.37006 12.9714 9.4574C12.8058 9.93982 12.5601 10.3907 12.2445 10.7911C11.9302 11.1724 11.574 11.517 11.1826 11.8186L10.9088 11.9767L11.049 12.0298L14.391 12.9279C14.5582 12.9625 14.7097 13.0504 14.8231 13.1782C14.9364 13.3061 15.0054 13.4672 15.0197 13.6375C15.0413 13.8084 15.0133 13.982 14.9389 14.1373C14.8646 14.2926 14.747 14.4231 14.6004 14.5133C14.5143 14.5621 14.4191 14.5929 14.3207 14.6036C14.2222 14.6143 14.1226 14.6048 14.0279 14.5757L11.6237 13.9528L11.3577 13.8504C11.2804 13.8219 11.2439 13.843 11.2208 13.9294L10.8628 15.2696C10.7396 15.7308 10.6255 16.1866 10.4514 16.665C10.3972 16.8541 10.2718 17.0148 10.1016 17.1131C9.93131 17.2114 9.7295 17.2396 9.53863 17.192C9.34154 17.1539 9.16256 17.0515 9.02974 16.9008C8.94991 16.8097 8.89365 16.7004 8.86591 16.5825C8.83817 16.4646 8.83981 16.3418 8.87068 16.2248L9.35193 14.4234L9.74905 12.7926L9.7693 12.659Z" fill="#F2F2F2"/>
        <path d="M5.52697 4.00545C6.1178 3.66194 6.79757 3.50212 7.47988 3.54628C8.16219 3.59044 8.81623 3.83659 9.35887 4.25345C9.90152 4.67031 10.3083 5.23906 10.5274 5.88741C10.7466 6.53575 10.7683 7.23443 10.5897 7.89463C10.4112 8.55483 10.0404 9.14676 9.52462 9.59517C9.00882 10.0436 8.37125 10.3282 7.69294 10.413C7.01463 10.4977 6.32621 10.3786 5.71518 10.071C5.10414 9.76328 4.59808 9.28087 4.26131 8.68503C3.81167 7.89509 3.69239 6.9596 3.92953 6.08283C4.16666 5.20606 4.74095 4.45924 5.52697 4.00545ZM5.7635 7.82993C5.92879 8.12443 6.17746 8.36347 6.47816 8.51689C6.77885 8.67031 7.1181 8.73124 7.45311 8.69201C7.78813 8.65277 8.1039 8.51512 8.36061 8.29641C8.61732 8.07771 8.80347 7.78774 8.89558 7.46309C8.98769 7.13844 8.98163 6.79364 8.87818 6.47218C8.77472 6.15072 8.5785 5.867 8.31426 5.6568C8.05001 5.44659 7.72959 5.31932 7.39339 5.29104C7.05719 5.26276 6.72027 5.33473 6.42514 5.49788C6.2281 5.6068 6.05458 5.75367 5.91456 5.93004C5.77455 6.10641 5.67081 6.30879 5.60932 6.52553C5.54782 6.74228 5.52979 6.96911 5.55625 7.19298C5.58271 7.41684 5.65314 7.63331 5.7635 7.82993Z" fill="#F2F2F2"/>
        </g>
        <defs>
        <clipPath id="clip0_2_193">
        <rect width="16" height="16" fill="white"/>
        </clipPath>
        </defs>
    </symbol>

    <symbol id="ig" width="15" height="15" viewBox="0 0 15 15" fill="none" xmlns="http://www.w3.org/2000/svg">
        <path d="M14.9998 7.49942C14.9998 8.58252 14.9998 9.66563 14.9998 10.7487C14.9923 11.5973 14.7281 12.4236 14.2419 13.1191C13.7556 13.8146 13.0702 14.3467 12.2758 14.6452C11.6 14.8974 10.882 15.0172 10.1609 14.998C8.282 14.998 6.4031 14.998 4.5242 14.998C3.61496 15.0188 2.7208 14.7634 1.95981 14.2654C1.04034 13.6963 0.379166 12.7909 0.116869 11.742C0.0415001 11.4215 0.0022988 11.0936 0 10.7645C0 8.62971 0 6.49497 0 4.34898C0 3.2479 0.307906 2.25917 1.09228 1.46145C1.83327 0.661796 2.83969 0.158671 3.92412 0.0457779C4.59837 -0.0148939 5.27261 0.00308295 5.93337 0.000835844C7.36727 0.000835844 8.80342 0.000835844 10.2396 0.000835844C11.2127 0.000835844 12.1477 0.158133 12.9793 0.697438C13.9015 1.24813 14.5755 2.13367 14.8604 3.16925C14.9465 3.5224 14.991 3.88439 14.993 4.24786C15.0087 5.33097 14.993 6.41407 14.993 7.49717L14.9998 7.49942ZM1.12375 7.49942C1.12375 8.59376 1.12375 9.68585 1.12375 10.7802C1.12375 12.0498 1.79799 12.9104 2.87679 13.4992C3.40132 13.7638 3.98428 13.8913 4.5714 13.87C6.50648 13.87 8.44157 13.87 10.3767 13.87C11.0491 13.8816 11.7122 13.7115 12.296 13.3778C13.3119 12.7891 13.8693 11.9217 13.8693 10.742C13.8827 8.55107 13.8872 6.36014 13.8693 4.16697C13.8693 2.87039 13.1343 2.01424 12.0263 1.44572C11.5279 1.20929 10.9797 1.09674 10.4284 1.11765C8.5045 1.11765 6.58065 1.11765 4.65455 1.11765C4.03801 1.1015 3.42688 1.23651 2.87454 1.51089C1.79799 2.07042 1.14847 2.94229 1.12375 4.18944C1.09678 5.29276 1.12375 6.39609 1.12375 7.49942Z" fill="#373334"/>
        <path d="M1.12375 7.49942V10.7802C1.12375 12.0498 1.79799 12.9104 2.87679 13.4992C3.40132 13.7638 3.98428 13.8913 4.5714 13.87H10.3767C11.0491 13.8816 11.7122 13.7115 12.296 13.3778C13.3119 12.7891 13.8693 11.9217 13.8693 10.742C13.8827 8.55107 13.8872 6.36014 13.8693 4.16697C13.8693 2.87039 13.1343 2.01424 12.0263 1.44572C11.5279 1.20929 10.9797 1.09674 10.4284 1.11765H4.65455C4.03801 1.1015 3.42688 1.23651 2.87454 1.51089C1.79799 2.07042 1.14847 2.94229 1.12375 4.18944C1.09678 5.29276 1.12375 6.39609 1.12375 7.49942Z" fill="#373334"/>
        <path d="M7.50635 10.7035C6.82069 10.6933 6.15337 10.4807 5.5883 10.0922C5.02323 9.70381 4.58565 9.157 4.33061 8.52058C4.07556 7.88415 4.01444 7.18654 4.15492 6.51547C4.29541 5.8444 4.63123 5.22985 5.12014 4.74911C5.60906 4.26838 6.22923 3.94293 6.90267 3.81369C7.57611 3.68446 8.27273 3.75721 8.90491 4.0228C9.5371 4.28839 10.0766 4.73496 10.4556 5.30634C10.8346 5.87772 11.0362 6.54839 11.0349 7.234C11.0242 8.161 10.6472 9.04613 9.9861 9.69616C9.32501 10.3462 8.43355 10.7083 7.50635 10.7035ZM5.10828 7.22726C5.09935 7.70462 5.23277 8.17383 5.49153 8.57509C5.75029 8.97636 6.12267 9.29152 6.56123 9.48042C6.99979 9.66931 7.48467 9.72339 7.95408 9.63575C8.42349 9.54811 8.85618 9.32273 9.19701 8.98833C9.53784 8.65393 9.77138 8.22565 9.86788 7.75805C9.96437 7.29046 9.91944 6.80473 9.73882 6.36276C9.55821 5.92079 9.25007 5.54259 8.85369 5.27635C8.4573 5.01011 7.99061 4.86788 7.51309 4.8678C6.8823 4.86536 6.27601 5.11175 5.82578 5.55348C5.37556 5.99521 5.11774 6.59665 5.10828 7.22726Z" fill="white"/>
        <path d="M12.1836 3.45884C12.1783 3.60398 12.1304 3.74435 12.0458 3.86242C11.9612 3.98049 11.8437 4.07102 11.7079 4.12273C11.5722 4.17443 11.4242 4.18501 11.2825 4.15315C11.1407 4.12128 11.0115 4.04839 10.911 3.94356C10.8104 3.83873 10.743 3.70661 10.7171 3.5637C10.6912 3.42078 10.708 3.27341 10.7653 3.13997C10.8227 3.00653 10.9181 2.89293 11.0396 2.81337C11.1611 2.7338 11.3034 2.69179 11.4487 2.69258C11.6466 2.70015 11.8339 2.78428 11.971 2.92723C12.1081 3.07018 12.1843 3.26078 12.1836 3.45884Z" fill="white"/>
    </symbol>

    <symbol id="ext" width="28" height="28" viewBox="0 0 28 28" fill="none" xmlns="http://www.w3.org/2000/svg">
        <path d="M18.2053 8.24152L19.1507 21.2002L21.695 18.6559L20.7232 5.82819L9.51789 5.37713L6.99982 7.8952L18.2053 8.24152Z" fill="#373334"/>
        <path d="M17.7877 7.13486L5.01379 19.9088L7.02622 21.9212L19.8002 9.14728L17.7877 7.13486Z" fill="#373334"/>
    </symbol>

    <symbol id="nav-arr-l" width="14" height="12"   xmlns="http://www.w3.org/2000/svg">
        <path d="M2.31745 5.44559L7.96316 12H5.57175L0 5.49487L5.05402 0L7.42078 0L2.31745 5.44559Z" />
        <path d="M1.99368 4.72705L14.0001 4.72705L14.0001 6.62438L1.99368 6.62438L1.99368 4.72705Z" />
    </symbol>

    <symbol id="nav-arr-r" width="14" height="12"   xmlns="http://www.w3.org/2000/svg">
        <path d="M11.6825 5.44559L6.03684 12H8.42825L14 5.49487L8.94598 0L6.57922 0L11.6825 5.44559Z" />
        <path d="M12.0063 4.72705L-4.57764e-05 4.72705L-4.56934e-05 6.62438L12.0063 6.62438L12.0063 4.72705Z" />
    </symbol>

    <symbol id="xpage" width="70" height="20" viewBox="0 0 70 20" fill="none" xmlns="http://www.w3.org/2000/svg">
        <path fill-rule="evenodd" clip-rule="evenodd" d="M17.3968 16.0611C17.2009 16.7826 16.9214 17.1575 16.0197 17.3649C14.0227 17.7447 12.0256 17.8425 10.0284 17.8424C8.03146 17.8425 6.03437 17.7447 4.03729 17.3649C3.13582 17.1575 2.85618 16.7826 2.66022 16.0612C2.2652 14.0409 2.16412 12.0204 2.16455 10C2.16402 7.9796 2.2652 5.9592 2.66032 3.93879C2.85618 3.21728 3.13582 2.84243 4.0374 2.63501C6.03448 2.25527 8.03146 2.15751 10.0285 2.15751C12.0257 2.15741 14.0228 2.25527 16.0198 2.63501C16.9215 2.84243 17.2009 3.2175 17.3969 3.93879C17.7921 5.9592 17.8931 7.9796 17.8926 10C17.8932 12.0204 17.7921 14.0409 17.3968 16.0611ZM20.0571 9.99096H20.0568C20.0558 7.84749 19.8647 5.7038 19.4783 3.56033C19.2355 2.14358 18.1165 0.908404 16.5733 0.593122C14.3965 0.197956 12.2197 0.00202104 10.0428 0.000319112V0C10.0379 0 10.0332 0.000106371 10.0284 0.000106371C10.0237 0.000106371 10.019 0 10.0143 0V0.000319112C7.83763 0.00202104 5.66059 0.197849 3.48377 0.593122C1.94062 0.908404 0.821632 2.14369 0.578814 3.56033C0.192333 5.7038 0.0012808 7.84749 0.000320199 9.99096H0C0 9.99394 0.000106733 9.99702 0.000106733 10C0.000106733 10.003 0 10.0062 0 10.009H0.000320199C0.0012808 12.1525 0.192333 14.2962 0.578814 16.4397C0.821632 17.8562 1.94062 19.0916 3.48377 19.407C5.66059 19.8019 7.83742 19.998 10.0143 19.9998V19.9999C10.019 19.9999 10.0237 19.9999 10.0284 19.9999C10.0333 19.9998 10.038 20 10.0428 20V19.9995C12.2197 19.998 14.3965 19.802 16.5733 19.4069C18.1165 19.0914 19.2356 17.8561 19.4783 16.4396C19.8647 14.2959 20.0558 12.1524 20.0568 10.0089H20.0571C20.0571 10.0059 20.057 10.0029 20.057 9.99989C20.0571 9.99692 20.0571 9.99394 20.0571 9.99096Z" fill="#373334"/>
        <path fill-rule="evenodd" clip-rule="evenodd" d="M15.1268 13.3362L11.8123 10.0084L13.299 8.51563C13.4114 8.43478 13.5101 8.33682 13.5897 8.22364L14.8287 6.97974C15.1404 6.68191 15.3878 6.38194 15.3878 5.95135C15.3878 5.2725 14.8357 4.72235 14.1547 4.72235C13.7672 4.72235 13.4515 4.91541 13.1908 5.15485L13.1834 5.16666L11.6145 6.74158L11.6087 6.73583L10.0809 8.27002L8.55307 6.73594L8.5471 6.74169L6.97865 5.16676L6.97097 5.15974C6.66614 4.87137 6.39471 4.72235 6.00706 4.72235C5.3261 4.72235 4.77408 5.2725 4.77408 5.95135C4.77408 6.38194 5.04603 6.67201 5.33315 6.97974L6.5721 8.22364C6.65173 8.33671 6.75046 8.43478 6.86295 8.51563L8.34953 10.0084L5.03515 13.3362L5.0328 13.3293C4.8616 13.5404 4.77344 13.8284 4.77344 14.1209C4.77344 14.7996 5.32546 15.3499 6.00653 15.3499C6.44168 15.3497 6.7591 15.1052 7.04269 14.7855L8.22946 13.594C8.38465 13.4976 8.51817 13.3696 8.61722 13.2165L10.0809 11.7468L11.5446 13.2165C11.6437 13.3697 11.7772 13.4976 11.9324 13.5942L13.1192 14.7856C13.3929 15.0561 13.7202 15.35 14.1554 15.35C14.8363 15.3498 15.3885 14.7998 15.3885 14.121C15.3885 13.8285 15.3051 13.5503 15.1338 13.3393L15.1268 13.3362ZM68.978 14.6235C68.9626 14.5032 68.9393 14.4063 68.9083 14.3321C68.8775 14.2583 68.8387 14.2043 68.7922 14.1703C68.7458 14.1364 68.6951 14.1193 68.639 14.1193H63.5259V10.7424H67.943C67.9989 10.7424 68.0498 10.7271 68.0962 10.6961C68.1427 10.6654 68.1813 10.6145 68.2123 10.5435C68.2434 10.4725 68.2665 10.3785 68.2819 10.2612C68.2974 10.1441 68.3053 9.99609 68.3053 9.81707C68.3053 9.64443 68.2975 9.49796 68.2819 9.37765C68.2665 9.25724 68.2432 9.16183 68.2123 9.09088C68.1815 9.01993 68.1425 8.96749 68.0962 8.93345C68.0498 8.89952 67.9989 8.88271 67.943 8.88271H63.5259V5.95922H68.602C68.6578 5.95922 68.707 5.94231 68.7508 5.90848C68.7939 5.87455 68.8308 5.82052 68.8619 5.74648C68.893 5.67245 68.9161 5.57533 68.9315 5.45503C68.947 5.33472 68.9549 5.18836 68.9549 5.01561C68.9549 4.83053 68.9471 4.67788 68.9315 4.55758C68.9161 4.43717 68.893 4.33877 68.8619 4.26144C68.8311 4.18443 68.7939 4.1305 68.7508 4.09965C68.707 4.0687 68.6578 4.05328 68.602 4.05328H61.8178C61.6139 4.05328 61.4418 4.11359 61.3025 4.23389C61.1632 4.35409 61.0937 4.55003 61.0937 4.82127V15.2574C61.0937 15.5288 61.1632 15.7246 61.3025 15.8449C61.4418 15.9652 61.6138 16.0253 61.8178 16.0253H68.639C68.695 16.0253 68.7458 16.0085 68.7922 15.9743C68.8387 15.9406 68.8775 15.8864 68.9083 15.8123C68.9394 15.7385 68.9626 15.6413 68.978 15.521C68.9936 15.4006 69.0012 15.2512 69.0012 15.0722C69.0013 14.8935 68.9936 14.7438 68.978 14.6235ZM57.1398 4.97785C57.0585 4.89392 56.9159 4.7951 56.7113 4.68129C56.5066 4.56737 56.2496 4.4611 55.9398 4.36239C55.6303 4.26346 55.2682 4.17943 54.8534 4.11061C54.4382 4.04179 53.9787 4.00732 53.4733 4.00732C52.5533 4.00732 51.7195 4.14805 50.9709 4.42962C50.2223 4.71139 49.583 5.11719 49.0546 5.64745C48.5254 6.17771 48.1163 6.82189 47.8277 7.57988C47.539 8.33788 47.3947 9.19321 47.3947 10.1461C47.3948 11.0687 47.5302 11.8941 47.8006 12.6221C48.0716 13.3503 48.4618 13.9674 48.9732 14.4737C49.4842 14.9801 50.1078 15.3666 50.8443 15.6331C51.5807 15.8998 52.4152 16.0331 53.3474 16.0331C53.6659 16.0331 53.9831 16.0182 54.2989 15.9882C54.6145 15.9582 54.9269 15.9132 55.2366 15.8534C55.5463 15.7936 55.8454 15.7217 56.134 15.6377C56.4225 15.5537 56.6646 15.4729 56.86 15.3949C57.0551 15.3172 57.1844 15.2108 57.248 15.076C57.311 14.941 57.3425 14.7838 57.3425 14.6042V9.81835C57.3425 9.69836 57.327 9.59199 57.2971 9.49923C57.2674 9.40627 57.2237 9.32691 57.1666 9.26107C57.1093 9.19512 57.0434 9.14576 56.9682 9.11268C56.8929 9.07971 56.8072 9.06333 56.7112 9.06333H52.7701C52.7158 9.06333 52.6677 9.07992 52.6257 9.11268C52.5837 9.14576 52.5471 9.19672 52.5172 9.26565C52.4874 9.33447 52.4647 9.42594 52.4498 9.53976C52.4349 9.65347 52.427 9.79441 52.427 9.96205C52.4271 10.2855 52.457 10.5149 52.5171 10.6496C52.5774 10.7844 52.6614 10.8518 52.77 10.8518H54.9793V13.7051C54.7571 13.8251 54.5165 13.9151 54.2577 13.9749C53.9995 14.0347 53.738 14.0647 53.4731 14.0647C52.9324 14.0647 52.4375 13.9779 51.9896 13.8039C51.5419 13.6302 51.1586 13.3725 50.8396 13.0311C50.5211 12.6895 50.2728 12.2657 50.0959 11.7592C49.9185 11.253 49.8295 10.6672 49.8295 10.0022C49.8295 9.39691 49.9168 8.8441 50.0908 8.34384C50.2656 7.84347 50.515 7.41512 50.8396 7.05846C51.1648 6.70201 51.555 6.4263 52.0123 6.23153C52.4692 6.03687 52.9799 5.93944 53.5456 5.93944C54.0742 5.93944 54.5391 5.99337 54.9389 6.10123C55.3387 6.20909 55.6826 6.32599 55.9711 6.45172C56.2598 6.57766 56.4914 6.69446 56.6656 6.80221C56.8403 6.91007 56.9664 6.964 57.0448 6.964C57.0986 6.964 57.1451 6.94911 57.1842 6.91922C57.2236 6.88922 57.2566 6.83689 57.2837 6.76179C57.3108 6.68701 57.3318 6.5866 57.3467 6.46076C57.3617 6.33482 57.3694 6.18526 57.3694 6.01134C57.3694 5.71181 57.3513 5.48545 57.3152 5.3327C57.2796 5.17995 57.221 5.06188 57.1398 4.97785ZM37.8075 11.4262L39.4932 6.37566H39.5026L41.189 11.4262H37.8075ZM41.2901 4.55737C41.2531 4.44121 41.2088 4.34931 41.1564 4.28197C41.1043 4.21453 41.0182 4.16401 40.8988 4.1305C40.7787 4.09678 40.6111 4.0754 40.3962 4.06615C40.1811 4.05689 39.8925 4.05243 39.5302 4.05243C39.2168 4.05232 38.9652 4.057 38.7745 4.06615C38.5842 4.0754 38.4349 4.09678 38.3277 4.1305C38.2205 4.16411 38.142 4.21315 38.0928 4.27729C38.0436 4.34154 38.0004 4.42579 37.9639 4.52982L34.2872 15.0719C34.2135 15.2863 34.1675 15.4577 34.1488 15.5862C34.1306 15.7148 34.1522 15.8145 34.2134 15.8847C34.2749 15.9551 34.3854 15.9994 34.5453 16.0177C34.7052 16.0361 34.9263 16.0454 35.2087 16.0454C35.4725 16.0453 35.6865 16.0391 35.8489 16.027C36.0116 16.0146 36.1376 15.9917 36.2266 15.9581C36.3156 15.9244 36.3803 15.8786 36.4201 15.8203C36.4605 15.7622 36.4925 15.6903 36.5168 15.6045L37.2727 13.2812H41.7506L42.5523 15.6688C42.5767 15.7485 42.6076 15.8129 42.6446 15.8617C42.6817 15.9107 42.7459 15.9489 42.8382 15.9765C42.9301 16.0039 43.0637 16.0224 43.2391 16.0314C43.4138 16.0407 43.6583 16.0454 43.9717 16.0454C44.2725 16.0453 44.5091 16.0376 44.6811 16.0224C44.853 16.007 44.9725 15.9673 45.0404 15.903C45.108 15.8388 45.1328 15.7422 45.114 15.6136C45.0958 15.4851 45.0494 15.3106 44.9758 15.0902L41.2901 4.55737ZM30.0772 8.72092C29.9903 8.98323 29.8637 9.2082 29.6962 9.39627C29.5292 9.58454 29.3143 9.73091 29.0515 9.83579C28.7883 9.94057 28.4616 9.9929 28.0718 9.9929H26.4252V5.93135H28.0159C28.2698 5.93135 28.5157 5.94848 28.754 5.98241C28.9924 6.01634 29.2195 6.09804 29.4363 6.22749C29.653 6.35694 29.8354 6.55756 29.9842 6.8288C30.133 7.10026 30.2071 7.44586 30.2071 7.86506C30.2072 8.17354 30.1641 8.45882 30.0772 8.72092ZM31.9616 5.34398C31.7017 5.05114 31.3877 4.80893 31.0193 4.61778C30.6512 4.42664 30.2873 4.29559 29.9285 4.22443C29.5698 4.15369 29.2617 4.10742 29.0052 4.08572C28.7479 4.06413 28.4772 4.05317 28.1928 4.05317H24.8102C24.5626 4.05317 24.3629 4.12582 24.2116 4.2707C24.0596 4.41547 23.9837 4.6331 23.9837 4.92296V15.6921C23.9837 15.7537 24.0025 15.8092 24.0396 15.8586C24.0767 15.908 24.1419 15.9481 24.2347 15.9789C24.3277 16.0099 24.4526 16.0343 24.6108 16.0529C24.7683 16.0713 24.9647 16.0807 25.2 16.0807C25.4412 16.0806 25.6397 16.0713 25.7945 16.0529C25.9488 16.0343 26.0726 16.0099 26.1655 15.9789C26.2585 15.9482 26.3248 15.908 26.365 15.8586C26.4055 15.8092 26.4253 15.7538 26.4253 15.6921V11.8711H27.9789C28.7712 11.8711 29.4595 11.7784 30.0446 11.5935C30.6295 11.4083 31.1228 11.1386 31.5253 10.7839C31.9278 10.4293 32.2342 9.99269 32.4441 9.47466C32.6549 8.95674 32.7599 8.36139 32.7599 7.68923C32.7599 7.20206 32.692 6.76253 32.5559 6.37077C32.4194 5.97933 32.2215 5.63692 31.9616 5.34398Z" fill="#373334"/>
    </symbol>

    <symbol id="clip" width="16" height="17" viewBox="0 0 16 17" fill="none" xmlns="http://www.w3.org/2000/svg">
        <path d="M14.4101 13.1473L14.4101 13.1473C15.1184 14.1708 14.7891 15.3999 13.6639 15.9323L14.4101 13.1473ZM14.4101 13.1473L7.40104 3.018L7.40089 3.0178M14.4101 13.1473L7.40089 3.0178M7.40089 3.0178C7.2224 2.75958 7.00625 2.52428 6.75879 2.31739C6.95117 2.4914 7.12333 2.68617 7.27096 2.89946L7.27099 2.89951M7.40089 3.0178L7.27099 2.89951M7.27099 2.89951L14.28 13.0288L14.2801 13.0289M7.27099 2.89951L14.2801 13.0289M14.2801 13.0289C15.0085 14.0825 14.6497 15.4217 13.4921 15.9698L13.4916 15.97M14.2801 13.0289L13.4916 15.97M13.4916 15.97C13.2964 16.0622 13.0902 16.1237 12.8802 16.158M13.4916 15.97L12.8802 16.158M12.8802 16.158C13.1569 16.1231 13.4214 16.047 13.6639 15.9324L12.8802 16.158ZM2.55038 1.71812L2.55012 1.71825C1.77095 2.08675 1.25561 2.69349 1.06231 3.41488C0.868916 4.13664 1.01157 4.91955 1.50187 5.62763L1.50194 5.62773L7.0198 13.6007C7.02725 13.6115 7.04934 13.632 7.08958 13.6427C7.09261 13.6436 7.09558 13.6443 7.09848 13.6449L1.63223 5.74627C1.63222 5.74626 1.63221 5.74625 1.63221 5.74624C1.15233 5.05291 0.983696 4.23467 1.19391 3.45014C1.40416 2.6655 1.96018 2.04114 2.72204 1.68065L2.72212 1.68061C2.95667 1.56968 3.2032 1.48708 3.45686 1.43257C3.13904 1.48801 2.83413 1.58372 2.55038 1.71812ZM10.2691 15.1065L10.2689 15.1062L5.56249 8.30447C5.35977 8.01152 5.27811 7.64175 5.37309 7.28729C5.46894 6.92957 5.72137 6.65481 6.04623 6.50117C6.13022 6.46144 6.21734 6.4306 6.30625 6.40833C6.15635 6.43141 6.0105 6.47448 5.87394 6.53896C5.53155 6.70096 5.32011 6.95873 5.24151 7.25207C5.16446 7.53965 5.22131 7.88102 5.4323 8.18592L5.43231 8.18593L10.1387 14.9878C10.2914 15.2084 10.4825 15.4065 10.7048 15.5752C10.54 15.4404 10.3921 15.284 10.2691 15.1065ZM8.05801 7.12396C7.97214 6.99988 7.86744 6.88966 7.74917 6.79474C7.81508 6.85861 7.87517 6.92907 7.92811 7.0058C7.92816 7.00586 7.9282 7.00592 7.92824 7.00598L11.1421 11.6508L11.1422 11.651C11.1495 11.6616 11.1715 11.682 11.2117 11.6928C11.2148 11.6936 11.2177 11.6943 11.2207 11.695L8.05801 7.12396Z" fill="white" stroke="white"/>
    </symbol>


    <symbol id="cal" width="20" height="20" viewBox="0 0 20 20" fill="none" xmlns="http://www.w3.org/2000/svg">
        <g clip-path="url(#clip0_2_312)">
        <path d="M0 19.633H20V6.22942H0V19.633ZM14.8281 8.18374H16.8972V10.2528H14.8281V8.18374ZM14.8281 11.7013H16.8972V13.7704H14.8281V11.7013ZM14.8281 15.2189H16.8972V17.2879H14.8281V15.2189ZM10.9197 8.18374H12.9887V10.2528H10.9197V8.18374ZM10.9197 11.7013H12.9887V13.7704H10.9197V11.7013ZM10.9197 15.2189H12.9887V17.2879H10.9197V15.2189ZM7.01121 8.18374H9.08029V10.2528H7.01121V8.18374ZM7.01121 11.7013H9.08029V13.7704H7.01121V11.7013ZM7.01121 15.2189H9.08029V17.2879H7.01121V15.2189ZM3.10283 8.18374H5.17186V10.2528H3.10283V8.18374ZM3.10283 11.7013H5.17186V13.7704H3.10283V11.7013ZM5.17186 15.2189V17.2879H3.10283V15.2189H5.17186Z" fill="#373334"/>
        <path d="M20 1.53949H16.4824V3.88452H15.3099V1.53949H4.69006V3.88452H3.5176V1.53949H0V5.05705H20V1.53949Z" fill="#373334"/>
        <path d="M4.69004 0.366898H3.51758V1.53935H4.69004V0.366898Z" fill="#373334"/>
        <path d="M16.4824 0.366898H15.3099V1.53935H16.4824V0.366898Z" fill="#373334"/>
        </g>
        <defs>
        <clipPath id="clip0_2_312">
        <rect width="20" height="20" fill="white"/>
        </clipPath>
        </defs>
    </symbol>







</svg>
