<?xml version="1.0" encoding="utf-8"?>
<!-- Generator: Adobe Illustrator 23.0.2, SVG Export Plug-In . SVG Version: 6.00 Build 0)  -->
<svg version="1.1" id="Слой_1" xmlns="http://www.w3.org/2000/svg" xmlns:xlink="http://www.w3.org/1999/xlink" x="0px" y="0px"
	 viewBox="0 0 130.4 108" style="enable-background:new 0 0 130.4 108;" xml:space="preserve">
<style type="text/css">
	.st0{fill-rule:evenodd;clip-rule:evenodd;fill:#FFFFFF;}
</style>
<path id="Path-3" class="st0" d="M8.9,46.6c35-15.2,58.3-25.3,70-30.2C112.2,2.5,119.2,0.1,123.7,0c1,0,3.2,0.2,4.7,1.4
	c1.2,1,1.5,2.3,1.7,3.3s0.4,3.1,0.2,4.7c-1.8,19-9.6,65.1-13.6,86.3c-1.7,9-5,12-8.2,12.3c-7,0.6-12.3-4.6-19-9
	C78.9,92.1,73,87.8,62.7,81c-11.9-7.8-4.2-12.1,2.6-19.1c1.8-1.8,32.5-29.8,33.1-32.3c0.1-0.3,0.1-1.5-0.6-2.1
	c-0.7-0.6-1.7-0.4-2.5-0.2c-1.1,0.2-17.9,11.4-50.6,33.5c-4.8,3.3-9.1,4.9-13,4.8c-4.3-0.1-12.5-2.4-18.7-4.4
	c-7.5-2.4-13.5-3.7-13-7.9C0.3,51.1,3.3,48.9,8.9,46.6z"/>
</svg>
