<?xml version="1.0" encoding="utf-8"?>
<!-- Generator: Adobe Illustrator 23.0.2, SVG Export Plug-In . SVG Version: 6.00 Build 0)  -->
<svg version="1.1" id="Слой_1" xmlns="http://www.w3.org/2000/svg" xmlns:xlink="http://www.w3.org/1999/xlink" x="0px" y="0px"
	 viewBox="0 0 492 491.9" style="enable-background:new 0 0 492 491.9;" xml:space="preserve">
<style type="text/css">
	.st0{fill:#FFFFFF;}
</style>
<g id="Edges">
</g>
<g id="Symbol">
	<g>
		<path class="st0" d="M84.9,12.9C68.7,19.2,55,27.6,41.3,41.3C27.6,54.9,19.2,68.7,12.9,84.8c-6.1,15.6-10.2,33.5-11.4,59.7
			S0,179.1,0,245.9s0.3,75.2,1.5,101.4s5.4,44.1,11.4,59.7c6.3,16.2,14.7,29.9,28.4,43.6s27.4,22.1,43.6,28.4
			c15.6,6.1,33.5,10.2,59.7,11.4c26.2,1.2,34.6,1.5,101.4,1.5s75.2-0.3,101.4-1.5c26.2-1.2,44.1-5.4,59.7-11.4
			c16.2-6.3,29.9-14.7,43.6-28.4c13.7-13.7,22.1-27.4,28.4-43.6c6.1-15.6,10.2-33.5,11.4-59.7c1.2-26.2,1.5-34.6,1.5-101.4
			s-0.3-75.2-1.5-101.4s-5.4-44.1-11.4-59.7c-6.3-16.1-14.7-29.9-28.3-43.5c-13.7-13.7-27.4-22.1-43.6-28.4
			c-15.6-6.1-33.5-10.2-59.7-11.4S312.9,0,246.1,0s-75.2,0.3-101.4,1.5C118.4,2.6,100.5,6.8,84.9,12.9z M345.4,45.7
			c24,1.1,37,5.1,45.7,8.5c11.5,4.5,19.7,9.8,28.3,18.4c8.6,8.6,13.9,16.8,18.4,28.3c3.4,8.7,7.4,21.7,8.5,45.7
			c1.2,25.9,1.4,33.7,1.4,99.4s-0.3,73.5-1.4,99.4c-1.1,24-5.1,37-8.5,45.7c-4.5,11.5-9.8,19.7-18.4,28.3
			c-8.6,8.6-16.8,13.9-28.3,18.4c-8.7,3.4-21.7,7.4-45.7,8.5c-25.9,1.2-33.7,1.4-99.4,1.4s-73.5-0.3-99.4-1.4
			c-24-1.1-37-5.1-45.7-8.5c-11.5-4.5-19.7-9.8-28.3-18.4s-13.9-16.8-18.4-28.3c-3.4-8.7-7.4-21.7-8.5-45.7
			c-1.2-25.9-1.4-33.7-1.4-99.4s0.3-73.5,1.4-99.4c1.1-24,5.1-37,8.5-45.7c4.5-11.5,9.8-19.7,18.4-28.3s16.8-13.9,28.3-18.4
			c8.7-3.4,21.7-7.4,45.7-8.5c25.9-1.2,33.7-1.4,99.4-1.4S319.5,44.5,345.4,45.7z"/>
		<path class="st0" d="M368.7,261.9c-6-7.6-4.3-11,0-17.7c0.1-0.1,49.7-68.7,54.8-91.9l0,0c2.5-8.5,0-14.7-12.3-14.7h-40.7
			c-10.4,0-15.1,5.4-17.7,11.3c0,0-20.7,49.5-50,81.7c-9.4,9.3-13.8,12.3-19,12.3c-2.5,0-6.5-3-6.5-11.5v-79.3
			c0-10.2-2.9-14.7-11.5-14.7h-63.9c-6.5,0-10.4,4.7-10.4,9.2c0,9.7,14.7,11.8,16.2,39v58.8c0,12.9-2.3,15.3-7.6,15.3
			c-13.8,0-47.4-49.8-67.3-106.7c-4.1-11-8-15.5-18.5-15.5H74c-11.6,0-13.9,5.4-13.9,11.3c0,10.5,13.8,63.1,64.3,132.6
			c33.6,47.4,81,73.1,124.1,73.1c25.9,0,29.1-5.7,29.1-15.5c0-45.3-2.3-49.5,10.6-49.5c6,0,16.3,3,40.5,25.9
			c27.6,27.1,32.2,39.2,47.7,39.2h40.7c11.6,0,17.4-5.7,14.1-16.9C423.3,313.8,371,265.1,368.7,261.9z"/>
	</g>
</g>
</svg>
