<?xml version="1.0" encoding="utf-8"?>
<!-- Generator: Adobe Illustrator 23.0.2, SVG Export Plug-In . SVG Version: 6.00 Build 0)  -->
<svg version="1.1" id="_x31_" xmlns="http://www.w3.org/2000/svg" xmlns:xlink="http://www.w3.org/1999/xlink" x="0px" y="0px"
	 viewBox="0 0 309.1 49.4" style="enable-background:new 0 0 309.1 49.4;" xml:space="preserve">
<style type="text/css">
	.st0{fill:#FFFFFF;}
	.st1{fill:#FF9500;}
</style>
<path class="st0" d="M61.5,18.7h-2.3c-2.3,0-2.9,0.3-3.7,1.8l-0.7,1.3c-0.4,0.8-0.9,1.2-2.1,1.2h-0.4c-0.1-1.5-0.3-2.9-0.7-4.2
	c-0.1-0.4-0.5-0.7-0.9-0.8l-3.8-0.5l0,0l-0.8-0.1l0,0.1v0c0.1,0.2,0.2,0.5,0.3,0.8c0,0.1,0.1,0.2,0.1,0.3c0.1,0.4,0.2,0.8,0.3,1.1
	c0,0.2,0.1,0.3,0.1,0.5c0,0.2,0.1,0.4,0.1,0.6c0,0.3,0.1,0.5,0.1,0.8c0,0.2,0,0.3,0.1,0.5c0,0.4,0.1,0.7,0.1,1.1c0,0.1,0,0.2,0,0.4
	c0,0.4,0,0.8,0,1.2c0,0,0,0,0,0c0,0.5,0,1,0,1.5c0,0.5-0.1,1-0.1,1.4c0,0,0,0,0,0c0,0.3-0.1,0.7-0.2,1c0,0.1,0,0.1,0,0.2
	c-0.1,0.3-0.1,0.6-0.2,0.9c0,0,0,0,0,0.1c-0.2,0.7-0.4,1.4-0.6,2.1l0,0l0,0.1l0.8-0.1l0,0l3.8-0.5c0.4-0.1,0.8-0.4,0.9-0.8
	c0.4-1.1,0.6-2.3,0.6-3.6h0.3c1.3,0,1.8,0.4,2.2,1.3l0.5,1.2c0.7,1.6,1.3,1.9,3.7,1.9h2.3c0.5,0,0.7-0.3,0.5-0.7l-2.2-4.3
	c-0.2-0.5-0.4-1-0.4-1.2c0-0.3,0.1-0.7,0.4-1.3l2.3-4.4C62.1,19,61.9,18.7,61.5,18.7z M77.1,19.4c-0.8-0.6-1.9-0.8-6.6-0.8
	c-3.1,0-5.4,0.1-7.2,0.1c-0.2,0-0.4,0.1-0.4,0.4v11.7c0,0.2,0.1,0.4,0.4,0.4h4.7c0.4,0,0.5-0.2,0.5-0.6v-1.9c0-0.6,0.2-0.8,0.6-0.8
	h2.7c3.4,0,4.6-0.3,5.3-1c0.7-0.6,1.3-2,1.3-4C78.4,21.1,77.9,20,77.1,19.4z M72.4,24.4c-0.2,0.1-0.7,0.1-1.8,0.1H69
	c-0.5,0-0.6-0.1-0.6-0.6v-1c0-0.4,0.1-0.5,0.4-0.5c0.3,0,1-0.1,1.6-0.1c1.3,0,1.7,0.1,2,0.2c0.2,0.1,0.3,0.4,0.3,0.9
	C72.8,23.9,72.6,24.3,72.4,24.4z M93.4,22.4c-0.7-1.7-1.2-2.6-1.8-3c-0.6-0.5-2.1-0.8-4.7-0.8c-2.6,0-3.8,0.4-4.5,0.9
	c-0.5,0.4-1.1,1.2-1.7,2.9l-2.8,7.4c-0.2,0.6-0.4,1-0.4,1.2c0,0.2,0.1,0.4,0.6,0.4h2.7c1.8,0,2.2-0.3,2.5-1.3l0.4-1.2
	c0.1-0.4,0.3-0.5,0.8-0.5h4.4c0.5,0,0.7,0.1,0.8,0.5l0.4,1.3c0.4,1,0.8,1.3,2.5,1.3h3.4c0.3,0,0.5-0.2,0.5-0.4
	c0-0.2-0.1-0.4-0.2-0.8L93.4,22.4z M87.8,24.8h-2.1c-0.4,0-0.6-0.1-0.6-0.4c0-0.1,0.1-0.3,0.1-0.5l0.2-0.6c0.2-0.5,0.3-0.6,0.4-0.7
	c0.1-0.1,0.4-0.2,1-0.2c0.5,0,0.8,0.1,0.9,0.2c0.1,0.1,0.3,0.2,0.4,0.7l0.2,0.5c0.1,0.2,0.1,0.4,0.1,0.5
	C88.4,24.7,88.2,24.8,87.8,24.8z M113.6,18.7h-4.1c-0.7,0-1.1,0.3-1.1,1.1v2.1c0,0.9-0.2,1.1-1.3,1.1h-2.7c-1,0-1.3-0.1-1.3-1.1
	v-2.1c0-0.8-0.4-1-1.2-1h-4c-0.2,0-0.4,0.1-0.4,0.4v11.9c0,0.3,0.1,0.4,0.4,0.4h4.2c0.7,0,1-0.3,1-1.1v-2.1c0-1,0.3-1.2,1.3-1.2h2.7
	c1.1,0,1.3,0.2,1.3,1.2v2.1c0,0.8,0.4,1,1.1,1h4.1c0.2,0,0.4-0.2,0.4-0.4V19.1C114,18.8,113.9,18.7,113.6,18.7z M196.5,22.6
	c-0.7-1.7-1.2-2.6-1.8-3c-0.6-0.5-2.1-0.8-4.7-0.8c-2.6,0-3.8,0.4-4.5,0.9c-0.5,0.4-1.1,1.2-1.7,2.9l-2.8,7.4
	c-0.2,0.6-0.4,1-0.4,1.2c0,0.2,0.1,0.4,0.6,0.4h2.7c1.8,0,2.2-0.3,2.5-1.3l0.4-1.2c0.1-0.4,0.3-0.5,0.8-0.5h4.4
	c0.5,0,0.7,0.1,0.8,0.5l0.4,1.3c0.4,1,0.8,1.3,2.5,1.3h3.4c0.3,0,0.5-0.2,0.5-0.4c0-0.2-0.1-0.4-0.2-0.8L196.5,22.6z M190.8,25.1
	h-2.1c-0.4,0-0.6-0.1-0.6-0.4c0-0.1,0.1-0.3,0.1-0.5l0.2-0.6c0.2-0.5,0.3-0.6,0.4-0.7c0.1-0.1,0.4-0.2,1-0.2c0.5,0,0.8,0.1,0.9,0.2
	c0.1,0.1,0.3,0.2,0.4,0.7l0.2,0.5c0.1,0.2,0.1,0.4,0.1,0.5C191.5,24.9,191.3,25.1,190.8,25.1z M216.6,18.9l-4.1,0H201
	c-0.2,0-0.4,0.1-0.4,0.4v11.9c0,0.3,0.1,0.4,0.4,0.4h4.2c0.7,0,1-0.3,1-1.1v-7.3c0-0.2,0.1-0.3,0.3-0.3h4.6c0.2,0,0.3,0.1,0.3,0.3
	v7.4c0,0.8,0.4,1,1.1,1h4.1c0.2,0,0.4-0.2,0.4-0.4V19.4C217,19.1,216.9,18.9,216.6,18.9z M233.4,19c-1.2,0-2.8,0-4.6,0
	c-0.2,0-0.4,0.2-0.4,0.4v4.7c0,0.5-0.1,0.6-0.6,0.6h-1.6c-1.1,0-1.6,0-1.8-0.1c-0.2-0.1-0.4-0.4-0.4-1v-4.4c0-0.2-0.2-0.4-0.4-0.4
	h-4.8c-0.2,0-0.4,0.2-0.4,0.4v4c0,2,0.5,3.3,1.3,4c0.8,0.7,2,1,5.3,1h2.7c0.5,0,0.6,0.1,0.6,0.8V31c0,0.4,0.1,0.6,0.5,0.6h4.7
	c0.3,0,0.4-0.2,0.4-0.4V19.5C233.9,19.1,233.6,19,233.4,19z M251.4,22.6c-0.7-1.7-1.2-2.6-1.8-3c-0.6-0.5-2.1-0.8-4.7-0.8
	c-2.6,0-3.8,0.4-4.5,0.9c-0.5,0.4-1.1,1.2-1.7,2.9l-2.8,7.4c-0.2,0.6-0.4,1-0.4,1.2c0,0.2,0.1,0.4,0.6,0.4h2.7
	c1.8,0,2.2-0.3,2.5-1.3l0.4-1.2c0.1-0.4,0.3-0.5,0.8-0.5h4.4c0.5,0,0.7,0.1,0.8,0.5l0.4,1.3c0.4,1,0.8,1.3,2.5,1.3h3.4
	c0.3,0,0.5-0.2,0.5-0.4c0-0.2-0.1-0.4-0.2-0.8L251.4,22.6z M245.7,25.1h-2.1c-0.4,0-0.6-0.1-0.6-0.4c0-0.1,0.1-0.3,0.1-0.5l0.2-0.6
	c0.2-0.5,0.3-0.6,0.4-0.7c0.1-0.1,0.4-0.2,1-0.2c0.5,0,0.8,0.1,0.9,0.2c0.1,0.1,0.3,0.2,0.4,0.7l0.2,0.5c0.1,0.2,0.1,0.4,0.1,0.5
	C246.4,24.9,246.2,25.1,245.7,25.1z M269.8,27.4c-1,0.1-2.3,0.2-5,0.2c-2.7,0-3.5-0.1-4-0.4c-0.4-0.3-0.6-0.9-0.6-1.9
	c0-1.1,0.3-1.8,0.7-2c0.4-0.3,1.7-0.4,3.8-0.4c2,0,3.9,0.1,5.1,0.2c0.3,0,0.5-0.1,0.5-0.4c0-1-0.8-2.5-1.6-3
	c-0.7-0.4-2.1-0.7-5.4-0.7c-4,0-5.8,0.6-6.8,1.4c-1,0.9-1.9,2.8-1.9,5.2c0,2.6,0.6,4.1,1.5,5c1,0.9,2.8,1.4,6.7,1.4
	c3.7,0,5.1-0.3,5.9-0.8c0.8-0.5,1.6-2.2,1.6-3.1C270.3,27.6,270.2,27.4,269.8,27.4z M288.5,18.9h-14.1c-1.3,0-1.7,0.1-2.1,0.3
	c-0.5,0.4-1,1.9-1,3c0,0.4,0.2,0.6,0.6,0.6h3.9c1.4,0,1.5,0.2,1.5,1.3v7c0,0.3,0.1,0.4,0.4,0.4h4.6c0.4,0,0.6-0.2,0.6-0.6v-6.8
	c0-1.2,0.1-1.3,1.6-1.3h2.1c0.9,0,1.3,0,1.6-0.2c0.4-0.2,0.9-1.8,0.9-3.2C289.1,19.1,288.8,18.9,288.5,18.9z M156.9,18.8
	c-1,0-1.5,0.1-1.8,0.3c-0.5,0.2-0.9,0.7-1.4,1.5l-6,8.7c-0.7,0.9-1,1.1-1.8,1.1c-0.6,0-0.7-0.2-0.7-0.7V19.5c0-0.5-0.1-0.6-0.7-0.6
	h-0.5c-0.1,0-0.2,0.1-0.2,0.2v10.9c0,0.6,0.1,1,0.3,1.3c0.2,0.2,0.7,0.3,1.7,0.3c0.8,0,1.5-0.1,1.9-0.3c0.4-0.2,0.7-0.6,1.3-1.4
	l6.1-8.8c0.7-1,1-1.1,1.8-1.1c0.6,0,0.7,0.2,0.7,0.7V31c0,0.5,0.1,0.6,0.6,0.6h0.5c0.1,0,0.2-0.1,0.2-0.2V20.5
	c0-0.6-0.1-1.1-0.4-1.3C158.2,19,157.6,18.8,156.9,18.8z M308.3,19.5c-0.6-0.4-2.1-0.6-4.3-0.6c-2.6,0-3.8,0.1-4.4,0.6
	c-0.7,0.5-1.1,1.5-1.7,3.4l-1.2,4.4c-0.1,0.5-0.2,0.6-0.4,0.6c-0.2,0-0.2-0.1-0.2-0.4v-6.2c0-1.8-0.2-2.1-2.6-2.1h-2.3
	c-0.3,0-0.5,0.1-0.5,0.4v9.1c0,1.4,0.2,2.2,0.7,2.6c0.5,0.4,1.9,0.6,4.4,0.6c2.3,0,3.9-0.1,4.5-0.5c0.6-0.5,0.9-1.3,1.4-2.8l1.4-5
	c0.1-0.4,0.2-0.5,0.4-0.5c0.2,0,0.2,0.1,0.2,0.3v6.5c0,1.6,0.5,1.9,2.4,1.9h2.3c0.3,0,0.5-0.2,0.5-0.5v-8.5
	C309.1,20.9,308.9,20,308.3,19.5z M124.7,22H122c-0.5,0-0.6-0.1-0.6-0.8v-1.9c0-0.4-0.1-0.6-0.5-0.6h-4.7c-0.3,0-0.4,0.2-0.4,0.4
	v11.7c0,0.3,0.2,0.4,0.4,0.4c1.7,0.1,4.1,0.1,7.2,0.1c4.6,0,5.7-0.2,6.6-0.8c0.8-0.6,1.3-1.7,1.3-3.6c0-2-0.5-3.3-1.3-4
	C129.2,22.3,128,22,124.7,22z M125.3,27.5c-0.2,0.1-0.7,0.2-2,0.2c-0.7,0-1.3-0.1-1.6-0.1c-0.3,0-0.4-0.1-0.4-0.5v-1
	c0-0.5,0.1-0.6,0.6-0.6h1.6c1.1,0,1.6,0,1.8,0.1c0.2,0.1,0.4,0.4,0.4,1C125.6,27.1,125.5,27.4,125.3,27.5z M136.8,18.7h-4.2
	c-0.3,0-0.4,0.2-0.4,0.4v11.1c0,0.8,0.3,1.1,1.1,1.1h4.1c0.3,0,0.4-0.1,0.4-0.4V19.8C137.8,19,137.5,18.7,136.8,18.7z M179,25.1
	c-0.3-0.2-0.4-0.3-0.4-0.5c0-0.2,0.1-0.2,0.3-0.5c0.4-0.4,0.6-1.1,0.6-2.3c0-1-0.3-1.9-0.9-2.3c-0.7-0.6-2.2-0.7-6.8-0.7
	c-2.2,0-5,0.1-7.3,0.2c-0.2,0-0.5,0.1-0.5,0.4v3c0.3,0,9.2,0,9.6,0.1c0.5,0.2,0.5,1.2,0,1.4c-0.2,0.1-6.4,0-6.6,0v2.7
	c0.4,0,6.7,0,7,0.1c0.5,0.2,0.5,1.3-0.1,1.5c-0.5,0.1-3.2,0.1-9.9,0.1V31c0,0.4,0.3,0.5,0.5,0.5c1.7,0.1,4.6,0.1,7.4,0.1
	c4.4,0,6.3-0.2,7-0.7c0.6-0.4,1.2-1.6,1.2-3C180.1,26.2,179.6,25.5,179,25.1z"/>
<path class="st1" d="M46.1,31.9c-0.4,1.2-1,2.4-1.6,3.5c-1.1,1.9-2.5,3.7-4.1,5.1c-1.1,1-2.4,2-3.7,2.7c-0.8,0.5-1.6,0.9-2.5,1.3
	c-2.3,1-4.8,1.5-7.2,1.6c-0.3,0-0.6,0-0.9,0c-2.2,0-4.4-0.3-6.4-1c-1.5-0.5-2.9-1.1-4.3-1.9c-0.8-0.5-1.5-0.9-2.3-1.5
	c-2.2-1.7-4.1-3.9-5.6-6.3c-1.1-1.8-1.9-3.9-2.3-6c-0.3-1.6-0.5-3.2-0.5-4.8c0-3.3,0.8-6.7,2.3-9.7c0.2-0.3,0.4-0.7,0.6-1
	c1-1.8,2.3-3.5,3.9-4.9c1.2-1.1,2.6-2.1,4-2.9c0.7-0.4,1.4-0.8,2.2-1.1l0.1,0.3c-0.7,0.4-1.4,0.8-2,1.3c-0.3,0.2-0.7,0.5-1,0.7
	l-0.7,0.6l-0.7,0.6c-0.5,0.4-0.8,0.8-1.2,1.3c-1.3,1.5-2.4,3.2-3.3,4.9c-0.2,0.3-0.3,0.6-0.4,1c-1.3,2.8-1.7,5.9-1.6,9
	c0.1,1.5,0.3,2.9,0.7,4.3c0.5,1.9,1.3,3.6,2.3,5.2c1.8,2.8,4.2,5.1,7,6.7c2.9,1.6,6.1,2.5,9.4,2.4c0.3,0,0.5,0,0.8,0
	c3-0.1,5.9-0.9,8.5-2.4c2.8-1.6,5.3-4,7-6.8c1.3-2.1,2.2-4.4,2.6-6.8c0.2-0.9,0.2-1.7,0.3-2.6c0.2-3.4-0.5-6.8-2.1-9.9
	c-0.1-0.2-0.2-0.4-0.3-0.6c-1.5-2.9-3.8-5.4-6.5-7.3c-1.2-0.8-2.4-1.6-3.7-2.2l0.1-0.3c1.4,0.5,2.7,1.1,4,1.8c3,1.7,5.6,4.2,7.5,7.2
	c0.1,0.2,0.2,0.4,0.4,0.6c0.7,1.1,1.2,2.3,1.6,3.5l0-0.1l0.8,0.1c0,0,0,0,0,0c-0.3-0.8-1.4-3.2-1.8-3.8c-0.4-0.7-1.8-2.9-2.4-3.5
	l1.1-3c0.2-0.4,0.1-0.9-0.2-1.2c-1.3-1.4-2.9-2.7-4.7-3.7c-1.8-1-3.7-1.8-5.5-2.2c0,0,0,0,0,0l-1.5,8.2c-0.2,1.4,0.3,2.9,1.5,3.8
	c0,0,0,0,0,0c0.5,0.4,1,0.8,1.5,1.3c0.1,0.1,0.2,0.1,0.2,0.2c0.1,0.1,0.2,0.2,0.3,0.3c0.1,0,0.1,0.1,0.1,0.1c1.1,1,2.1,2.3,2.8,3.6
	c1.1,2,1.8,4.4,1.8,6.9c0,0.1,0,0.2,0,0.3c-0.1,2.6-0.8,4.9-2,7c-1.3,2.1-3,3.9-5.2,5.1c-2.1,1.2-4.4,1.9-7,1.9c-0.1,0-0.1,0-0.2,0
	c-2.5,0-4.9-0.7-6.9-1.8c-2.2-1.2-4-3-5.3-5.1c-0.6-1-1.1-2.1-1.5-3.3c0,0,0,0,0,0c-0.3-1-0.6-1.9-1.4-2.5c0,0-0.1-0.1-0.1-0.1
	c-0.3-0.2-0.6-0.5-0.8-0.8c-0.1-0.2-0.1-0.3-0.1-0.5c0-0.3,0.1-0.6,0.3-0.9c0.2-0.2,0.6-0.4,1.1-0.6c3.3-0.8,7.5,1,8.8,3.9l0,0
	c0,0,0,0,0,0c0.3,0.7,0.7,1.3,1.1,1.8c1.2,1.4,2.9,2.2,4.9,2.2c3.6,0,6.5-2.9,6.5-6.5s-2.9-6.5-6.5-6.5c0,0,0,0,0,0
	c-0.1,0-0.1,0-0.2,0c-4.8-0.1-7.3-4.4-7.3-7.7l-0.2-1.4l-1.1-8.8c-1.4,0.4-2.9,1.1-4.2,1.8c-1.8,1-3.4,2.3-4.7,3.7
	C8,6.2,7.9,6.7,8.1,7.1l1.1,3c-0.6,0.6-2,2.8-2.4,3.5c-0.4,0.7-1.6,3-1.8,3.8L1.8,18c-0.4,0.1-0.8,0.4-0.9,0.8
	C0.3,20.6,0,22.6,0,24.7c0,2,0.3,4.1,0.9,5.9C1,31,1.4,31.3,1.8,31.4L5,31.9c0.3,0.8,1.4,3.2,1.8,3.8c0.4,0.7,1.8,2.9,2.4,3.5
	l-1.1,3c-0.2,0.4-0.1,0.9,0.2,1.2c1.3,1.4,2.9,2.7,4.7,3.7c1.8,1,3.7,1.8,5.5,2.2c0.4,0.1,0.9-0.1,1.1-0.4l2.1-2.5
	c0.8,0.2,3.4,0.3,4.2,0.3c0.8,0,3.4-0.1,4.2-0.3l2.1,2.5c0.3,0.4,0.7,0.5,1.1,0.4c1.8-0.4,3.8-1.2,5.5-2.2c1.8-1,3.4-2.3,4.7-3.7
	c0.3-0.3,0.4-0.8,0.2-1.2l-1.1-3c0.6-0.6,2-2.8,2.4-3.5c0.4-0.7,1.6-3,1.8-3.8c0,0,0,0,0,0L46.1,31.9L46.1,31.9z M34.2,22.1
	c0.2,0.6,0.3,1.3,0.3,1.9c0,0.3,0,0.6,0,1c0,0.3,0,0.6-0.1,0.9c-0.2,1.2-0.7,2.4-1.4,3.5c-1.5,2.1-3.9,3.4-6.5,3.5
	c-2.6,0.1-5.2-0.9-7-2.9c0.7,1.1,1.8,2.1,3,2.8c1.2,0.7,2.6,1,4.1,1c1.4,0,2.9-0.3,4.1-1c1.3-0.6,2.4-1.6,3.2-2.8
	c1.7-2.3,2.2-5.5,1.2-8.2c-0.5-1.3-1.3-2.6-2.3-3.5c-0.6-0.6-1.3-1-2.1-1.4c-0.5-0.2-1-0.4-1.5-0.6c0.4,0.2,0.8,0.4,1.2,0.7
	C32.3,18.3,33.7,20.1,34.2,22.1z"/>
</svg>
