<?xml version="1.0" encoding="utf-8"?>
<!-- Generator: Adobe Illustrator 23.0.2, SVG Export Plug-In . SVG Version: 6.00 Build 0)  -->
<svg version="1.1" id="Capa_1" xmlns="http://www.w3.org/2000/svg" xmlns:xlink="http://www.w3.org/1999/xlink" x="0px" y="0px"
	 viewBox="0 0 318.7 319.1" style="enable-background:new 0 0 318.7 319.1;" xml:space="preserve">
<style type="text/css">
	.st0{fill:#ffffff;}
</style>
<g>
	<g>
		<path class="st0" d="M0,319.1l22.3-79.3C8,215.4,0.4,187.7,0.4,159.2C0.4,71.4,71.8,0,159.6,0s159.2,71.4,159.2,159.2
			s-71.4,159.2-159.2,159.2c-27.3,0-54.1-7-77.8-20.3L0,319.1z M85.9,269.1l4.9,3c20.7,12.6,44.4,19.3,68.8,19.3
			c72.9,0,132.2-59.3,132.2-132.2S232.5,27,159.6,27S27.4,86.3,27.4,159.2c0,25.4,7.2,50.1,20.9,71.3l3.3,5.1l-12.9,45.7L85.9,269.1
			z"/>
		<path class="st0" d="M114.9,85.1l-10.3-0.6c-3.2-0.2-6.4,0.9-8.9,3c-5,4.3-13,12.8-15.5,23.7c-3.7,16.3,2,36.3,16.7,56.3
			c14.7,20,42,52,90.3,65.7c15.6,4.4,27.8,1.4,37.3-4.6c7.5-4.8,12.6-12.5,14.5-21.2l1.6-7.7c0.5-2.4-0.7-4.9-3-6l-34.9-16.1
			c-2.3-1-5-0.4-6.5,1.6l-13.7,17.8c-1,1.3-2.8,1.9-4.4,1.3c-9.4-3.3-40.8-16.5-58.1-49.7c-0.7-1.4-0.6-3.2,0.5-4.4l13.1-15.1
			c1.3-1.5,1.7-3.7,0.9-5.6l-15-35.2C118.7,86.5,116.9,85.2,114.9,85.1z"/>
	</g>
</g>
</svg>
